<?xml version="1.0" encoding="utf-8"?>
<COLLADA xmlns="http://www.collada.org/2005/11/COLLADASchema" version="1.4.1" xmlns:xsi="http://www.w3.org/2001/XMLSchema-instance">
  <asset>
    <contributor>
      <author>Blender User</author>
      <authoring_tool>Blender 4.5.3 LTS commit date:2025-09-08, commit time:12:46, hash:67807e1800cc</authoring_tool>
    </contributor>
    <created>2025-10-12T05:29:06</created>
    <modified>2025-10-12T05:29:06</modified>
    <unit name="meter" meter="1"/>
    <up_axis>Z_UP</up_axis>
  </asset>
  <library_effects>
    <effect id="espejo-effect">
      <profile_COMMON>
        <newparam sid="espejo_png-surface">
          <surface type="2D">
            <init_from>espejo_png</init_from>
          </surface>
        </newparam>
        <newparam sid="espejo_png-sampler">
          <sampler2D>
            <source>espejo_png-surface</source>
          </sampler2D>
        </newparam>
        <technique sid="common">
          <lambert>
            <emission>
              <color sid="emission">0 0 0 1</color>
            </emission>
            <diffuse>
              <texture texture="espejo_png-sampler" texcoord="UVMap"/>
            </diffuse>
            <index_of_refraction>
              <float sid="ior">1.5</float>
            </index_of_refraction>
          </lambert>
        </technique>
      </profile_COMMON>
    </effect>
  </library_effects>
  <library_images>
    <image id="espejo_png" name="espejo_png">
      <init_from>/C:/Users/joses/OneDrive/Escritorio/CGEIH/Project6/Textures/espejo.png</init_from>
    </image>
  </library_images>
  <library_materials>
    <material id="espejo-material" name="espejo">
      <instance_effect url="#espejo-effect"/>
    </material>
  </library_materials>
  <library_geometries>
    <geometry id="Plane_004-mesh" name="Plane.004">
      <mesh>
        <source id="Plane_004-mesh-positions">
          <float_array id="Plane_004-mesh-positions-array" count="894">0.4609674 -0.3550757 1.225183 0.4744958 -0.4090902 1.187071 0 -0.3422351 1.273907 0.1866043 -0.3394727 1.270539 0.5070143 -0.3184791 1.236396 0 -0.7642108 1.003512 0.2245676 -0.7555267 1.000852 0.6083511 -0.6700237 0.9709165 0.562598 -0.5129928 1.091687 0 -0.5783367 1.123679 0.2071987 -0.5721688 1.120608 0.5298433 -0.3961381 1.178844 0 -0.4427767 1.210022 0.1948607 -0.4385554 1.20684 0.268583 -0.3352953 1.266564 0.4862306 -0.4559652 1.153822 0.3231412 -0.7437595 0.9969743 0.2983677 -0.5638442 1.116627 0.2805858 -0.4326696 1.202905 0.09568512 -0.3417401 1.272983 0.5049126 -0.5308021 1.100084 0.1151975 -0.7621438 1.003021 0.1062518 -0.576893 1.122959 0.09995615 -0.441854 1.20921 0.5245639 -0.6095033 1.043556 0.3984935 -0.3240569 1.256442 0.4816608 -0.7118801 0.9862255 0.4452649 -0.5415321 1.105968 0.4181063 -0.4168765 1.192612 0.546185 -0.6963451 0.9800189 0.478961 -0.3146585 1.24804 0.5806527 -0.6846854 0.9763821 0.5364971 -0.5228978 1.09667 0.5033986 -0.4037534 1.183883 0.6247029 -0.6557163 0.9664958 0.5740404 -0.506478 1.088776 0.5363704 -0.3934026 1.17721 0.3390752 -0.3299118 1.261566 0.5644952 -0.7699598 0.9259304 0.4083958 -0.7287737 0.991713 0.3773893 -0.5533012 1.111401 0.3547604 -0.4251709 1.197848 0.5778543 -0.8237211 0.8862674 0.4517623 -0.3183205 1.251139 0 -0.6666567 1.067188 0.215551 -0.659288 1.064272 0.5841743 -0.5878449 1.034927 0.3101749 -0.6493434 1.060326 0.1106704 -0.6649087 1.066555 0.4624986 -0.6225336 1.049596 0.557335 -0.5999128 1.040059 0.5981498 -0.5780898 1.031276 0.3921043 -0.636713 1.055069 0 -0.8982958 0.9148378 0.2374694 -0.890696 0.9107889 0.2324128 -0.8376911 0.9462149 0.3417742 -0.8797661 0.9047645 0.1218242 -0.8969382 0.9139094 0.5091136 -0.8456215 0.8910109 0.6130603 -0.8049675 0.8856685 0.4316272 -0.8637523 0.8981286 0.5998974 -0.755333 0.9231117 0 -0.4948927 1.177007 0.1996659 -0.4899187 1.173864 0.5416176 -0.4415434 1.145746 0.2874237 -0.4831109 1.169913 0.1025214 -0.4937632 1.176228 0.4285705 -0.4648609 1.159487 0.5161463 -0.449683 1.150556 0.5508493 -0.4371741 1.143456 0.3634448 -0.4744659 1.164795 0.09442949 -0.3096563 1.292468 0.3920219 -0.2899366 1.278306 0.3338524 -0.2950264 1.283391 0.2646387 -0.3004582 1.287976 0 -0.3113379 1.292693 0.1840153 -0.3058212 1.291037 0.497262 -0.7879618 0.9321649 0.1192914 -0.8454099 0.9480817 0 -0.8478655 0.9483034 0.3341517 -0.8241464 0.9425888 0.6291765 -0.7897712 0.8861783 0.4219361 -0.8070945 0.9375076 0.6251393 -0.7381241 0.9195544 0.6453498 -0.7175207 0.9140235 0.4471624 -0.2870365 1.271453 0.4747534 -0.2911236 1.263885 0.4925834 -0.2997961 1.25351 0.513819 -0.3447793 1.217322 0 -0.382896 1.247992 0.189785 -0.3795399 1.244713 0.2732508 -0.374682 1.240764 0.09730726 -0.3822228 1.247119 0.4063329 -0.3616281 1.230585 0.4888118 -0.3507577 1.222058 0.3452499 -0.3684567 1.235751 0.5188377 -0.3428237 1.216222 0.6417899 -0.768936 0.8895027 0.6468307 -0.7480029 0.8966178 0.6472524 -0.7325957 0.9043023 0.5056878 -0.3149412 1.230797 0.6244421 -0.6512315 0.9603157 0.5727177 -0.5028974 1.083116 0.5350489 -0.3898403 1.171579 0.5765668 -0.8203344 0.8808803 0.596966 -0.574597 1.025778 0 -0.8949145 0.9094592 0.2361575 -0.8877024 0.9059986 0.3405019 -0.8766665 0.8998157 0.1204456 -0.893828 0.9089397 0.5077925 -0.8421859 0.8855524 0.6119747 -0.8017473 0.8805665 0.4303477 -0.8604795 0.8929182 0.549608 -0.4336887 1.137956 0.09301972 -0.306001 1.286678 0.3905673 -0.2861163 1.272204 0.3324149 -0.2912512 1.277374 0.2632241 -0.2967742 1.282131 0 -0.3080447 1.287564 0.1826076 -0.302184 1.28528 0.6280037 -0.7863486 0.8807726 0.6440495 -0.713921 0.9083398 0.445684 -0.2831417 1.265232 0.4733806 -0.2875591 1.258248 0.4911911 -0.296171 1.247768 0.1214252 -0.8888211 0.9193037 0.507507 -0.8377988 0.8966138 0.4302727 -0.8558279 0.9036533 0.6110419 -0.7973547 0.891425 0.3406772 -0.8717584 0.9102254 0.2366993 -0.8826179 0.9162014 0 -0.8901722 0.9202391 0.5759454 -0.816031 0.8919573 0.5175371 -0.3392987 1.210649 0.6404009 -0.765294 0.8837358 0.6452404 -0.7442423 0.8906317 0.6455885 -0.728815 0.8982656 0.2656363 -0.3091774 1.283055 0.3351631 -0.3036848 1.278437 0.09477257 -0.318398 1.287493 0 -0.3200734 1.28769 0.1846919 -0.3145614 1.286092 0.4762611 -0.2994616 1.258453 0.4484419 -0.2955847 1.266297 0.3936609 -0.2985025 1.273289 0.4877607 -0.3051906 1.251694 0.5016252 -0.3214061 1.23674 0.6206567 -0.6596752 0.9678224 0.56795 -0.5100576 1.090464 0.6419442 -0.7341974 0.9085456 0.5924623 -0.5822662 1.032992 0.5444761 -0.4402427 1.145107 0.6407334 -0.7228186 0.9157831 0.6416071 -0.7456594 0.9026116 0.6356677 -0.7669621 0.8953186 0.6246429 -0.7844232 0.8921632 -0.4609674 -0.3550757 1.225183 -0.4744958 -0.4090902 1.187071 -0.1866043 -0.3394727 1.270539 -0.5070143 -0.3184791 1.236396 -0.2245676 -0.7555267 1.000852 -0.6083511 -0.6700237 0.9709165 -0.562598 -0.5129928 1.091687 -0.2071987 -0.5721688 1.120608 -0.5298433 -0.3961381 1.178844 -0.1948607 -0.4385554 1.20684 -0.268583 -0.3352953 1.266564 -0.4862306 -0.4559652 1.153822 -0.3231412 -0.7437595 0.9969743 -0.2983677 -0.5638442 1.116627 -0.2805858 -0.4326696 1.202905 -0.09568512 -0.3417401 1.272983 -0.5049126 -0.5308021 1.100084 -0.1151975 -0.7621438 1.003021 -0.1062518 -0.576893 1.122959 -0.09995615 -0.441854 1.20921 -0.5245639 -0.6095033 1.043556 -0.3984935 -0.3240569 1.256442 -0.4816608 -0.7118801 0.9862255 -0.4452649 -0.5415321 1.105968 -0.4181063 -0.4168765 1.192612 -0.546185 -0.6963451 0.9800189 -0.478961 -0.3146585 1.24804 -0.5806527 -0.6846854 0.9763821 -0.5364971 -0.5228978 1.09667 -0.5033986 -0.4037534 1.183883 -0.6247029 -0.6557163 0.9664958 -0.5740404 -0.506478 1.088776 -0.5363704 -0.3934026 1.17721 -0.3390752 -0.3299118 1.261566 -0.5644952 -0.7699598 0.9259304 -0.4083958 -0.7287737 0.991713 -0.3773893 -0.5533012 1.111401 -0.3547604 -0.4251709 1.197848 -0.5778543 -0.8237211 0.8862674 -0.4517623 -0.3183205 1.251139 -0.215551 -0.659288 1.064272 -0.5841743 -0.5878449 1.034927 -0.3101749 -0.6493434 1.060326 -0.1106704 -0.6649087 1.066555 -0.4624986 -0.6225336 1.049596 -0.557335 -0.5999128 1.040059 -0.5981498 -0.5780898 1.031276 -0.3921043 -0.636713 1.055069 -0.2374694 -0.890696 0.9107889 -0.2324128 -0.8376911 0.9462149 -0.3417742 -0.8797661 0.9047645 -0.1218242 -0.8969382 0.9139094 -0.5091136 -0.8456215 0.8910109 -0.6130603 -0.8049675 0.8856685 -0.4316272 -0.8637523 0.8981286 -0.5998974 -0.755333 0.9231117 -0.1996659 -0.4899187 1.173864 -0.5416176 -0.4415434 1.145746 -0.2874237 -0.4831109 1.169913 -0.1025214 -0.4937632 1.176228 -0.4285705 -0.4648609 1.159487 -0.5161463 -0.449683 1.150556 -0.5508493 -0.4371741 1.143456 -0.3634448 -0.4744659 1.164795 -0.09442949 -0.3096563 1.292468 -0.3920219 -0.2899366 1.278306 -0.3338524 -0.2950264 1.283391 -0.2646387 -0.3004582 1.287976 -0.1840153 -0.3058212 1.291037 -0.497262 -0.7879618 0.9321649 -0.1192914 -0.8454099 0.9480817 -0.3341517 -0.8241464 0.9425888 -0.6291765 -0.7897712 0.8861783 -0.4219361 -0.8070945 0.9375076 -0.6251393 -0.7381241 0.9195544 -0.6453498 -0.7175207 0.9140235 -0.4471624 -0.2870365 1.271453 -0.4747534 -0.2911236 1.263885 -0.4925834 -0.2997961 1.25351 -0.513819 -0.3447793 1.217322 -0.189785 -0.3795399 1.244713 -0.2732508 -0.374682 1.240764 -0.09730726 -0.3822228 1.247119 -0.4063329 -0.3616281 1.230585 -0.4888118 -0.3507577 1.222058 -0.3452499 -0.3684567 1.235751 -0.5188377 -0.3428237 1.216222 -0.6417899 -0.768936 0.8895027 -0.6468307 -0.7480029 0.8966178 -0.6472524 -0.7325957 0.9043023 -0.5056878 -0.3149412 1.230797 -0.6244421 -0.6512315 0.9603157 -0.5727177 -0.5028974 1.083116 -0.5350489 -0.3898403 1.171579 -0.5765668 -0.8203344 0.8808803 -0.596966 -0.574597 1.025778 -0.2361575 -0.8877024 0.9059986 -0.3405019 -0.8766665 0.8998157 -0.1204456 -0.893828 0.9089397 -0.5077925 -0.8421859 0.8855524 -0.6119747 -0.8017473 0.8805665 -0.4303477 -0.8604795 0.8929182 -0.549608 -0.4336887 1.137956 -0.09301972 -0.306001 1.286678 -0.3905673 -0.2861163 1.272204 -0.3324149 -0.2912512 1.277374 -0.2632241 -0.2967742 1.282131 -0.1826076 -0.302184 1.28528 -0.6280037 -0.7863486 0.8807726 -0.6440495 -0.713921 0.9083398 -0.445684 -0.2831417 1.265232 -0.4733806 -0.2875591 1.258248 -0.4911911 -0.296171 1.247768 -0.1214252 -0.8888211 0.9193037 -0.507507 -0.8377988 0.8966138 -0.4302727 -0.8558279 0.9036533 -0.6110419 -0.7973547 0.891425 -0.3406772 -0.8717584 0.9102254 -0.2366993 -0.8826179 0.9162014 -0.5759454 -0.816031 0.8919573 -0.5175371 -0.3392987 1.210649 -0.6404009 -0.765294 0.8837358 -0.6452404 -0.7442423 0.8906317 -0.6455885 -0.728815 0.8982656 -0.2656363 -0.3091774 1.283055 -0.3351631 -0.3036848 1.278437 -0.09477257 -0.318398 1.287493 -0.1846919 -0.3145614 1.286092 -0.4762611 -0.2994616 1.258453 -0.4484419 -0.2955847 1.266297 -0.3936609 -0.2985025 1.273289 -0.4877607 -0.3051906 1.251694 -0.5016252 -0.3214061 1.23674 -0.6206567 -0.6596752 0.9678224 -0.56795 -0.5100576 1.090464 -0.6419442 -0.7341974 0.9085456 -0.5924623 -0.5822662 1.032992 -0.5444761 -0.4402427 1.145107 -0.6407334 -0.7228186 0.9157831 -0.6416071 -0.7456594 0.9026116 -0.6356677 -0.7669621 0.8953186 -0.6246429 -0.7844232 0.8921632</float_array>
          <technique_common>
            <accessor source="#Plane_004-mesh-positions-array" count="298" stride="3">
              <param name="X" type="float"/>
              <param name="Y" type="float"/>
              <param name="Z" type="float"/>
            </accessor>
          </technique_common>
        </source>
        <source id="Plane_004-mesh-normals">
          <float_array id="Plane_004-mesh-normals-array" count="894">0.02855098 -0.5386411 0.8420515 0.06038987 -0.5370939 0.8413581 0.02682012 -0.5369924 0.8431607 0.1617527 -0.5415917 0.8249331 0.1475771 -0.539318 0.8290702 0.173169 -0.5395689 0.8239406 0.1125072 -0.5329982 0.8386031 0.08780902 -0.5376477 0.8385849 0.1177258 -0.5386991 0.8342326 0.1668852 -0.5414181 0.8240242 0.1274795 -0.545042 0.8286606 0.1745783 -0.5401736 0.8232467 0.1838285 -0.5398443 0.8214471 0.1689507 -0.5388619 0.8252778 0.2005476 -0.5377286 0.8189193 0.07329577 -0.5460874 0.8345156 0.1136913 -0.5394242 0.8343237 0.0690934 -0.5411207 0.8381018 0.2253736 -0.529168 0.8180392 0.2448219 -0.5233561 0.8161866 0.142952 -0.5372189 0.8312404 0.1541821 -0.5380872 0.8286677 0.03119957 -0.5478439 0.8359986 0.0300588 -0.5422888 0.8396543 0.02419877 -0.5366699 0.8434454 0 -0.5354524 0.8445655 0.0254836 -0.5355556 0.8441154 0.09829074 -0.5371503 0.8377401 0.06480967 -0.5382035 0.8403194 0.105925 -0.53749 0.836591 0.125045 -0.5371628 0.8341583 0.1321883 -0.5376866 0.8327181 0.2582526 -0.5220453 0.8128803 0.2820093 -0.5173574 0.8079679 0.05721771 -0.5359011 0.8423397 0.05408132 -0.5370686 0.8418033 0.2180939 -0.5364529 0.8152628 0.1961655 -0.5412123 0.8176847 0.237954 -0.5363543 0.8097543 0.3093329 -0.5137807 0.8002141 0.3381606 -0.5065885 0.793105 0 -0.5487155 0.8360092 -1.46907e-7 -0.5428001 0.839862 0 -0.5388121 0.842426 -1.21185e-7 -0.5369605 0.8436075 0.6133259 -0.3747419 0.6952697 0.4745397 -0.45141 0.7556726 0.4982318 -0.4351955 0.7499133 0.504417 -0.4340557 0.746431 0.3889724 -0.4810551 0.7856758 0.427421 -0.4717633 0.7712009 0.4080889 -0.4703629 0.7824465 0.3490748 -0.4899554 0.7988057 0.3547843 -0.4912216 0.7955058 0.03182256 -0.5504724 0.8342466 0.3227158 -0.5000773 0.8036027 0.1559787 -0.5398177 0.8272047 0.182729 -0.5388445 0.8223484 0.2070099 -0.5391465 0.8163749 0.1325923 -0.5354372 0.8341022 0.138956 -0.5408632 0.8295531 0.2033388 -0.5342882 0.8204814 0.1533128 -0.5382881 0.8286985 0.5711225 -0.4016041 0.7159144 0.1216959 -0.5434899 0.8305473 0 -0.9772558 0.2120644 0.03216797 -0.5517302 0.8334021 1.2215e-7 -0.5531439 0.8330857 0.08726483 -0.9738773 0.2096377 0.1305376 -0.5460945 0.8274907 0.07811063 -0.5494965 0.8318368 0.2137442 -0.5386678 0.8149543 0.3861118 -0.9092369 0.1555824 0.2579221 -0.5312485 0.8070014 0.03669965 -0.9767673 0.2111369 0.5623024 -0.8123877 0.1544095 0.3546041 -0.5021935 0.7887064 0.4520339 -0.4551774 0.7671239 0.09306842 -0.5363188 0.8388686 0.5956315 -0.3878213 0.7034328 0.6088485 -0.3784244 0.6972078 0.02304714 -0.5106129 0.8595018 0 -0.5327597 0.8462666 0.02347505 -0.5323653 0.8461892 0.0506702 -0.5075622 0.8601239 0.05204731 -0.5320525 0.8451102 0.2006583 -0.5168327 0.8322381 0.08147859 -0.5041855 0.8597431 0.08417391 -0.5320774 0.8425013 0.2499863 -0.5178092 0.8181569 0.2900254 -0.5067173 0.8118638 0.9412027 -0.04039174 0.3354194 0.1496122 -0.5130761 0.8452036 0.7491326 -0.6456981 0.1478997 0.4533817 -0.4625098 0.7619251 0.2515958 -0.5333256 0.8076283 0.07642018 -0.5483085 0.8327772 0 -0.5516937 0.8340469 0.1782115 -0.5418944 0.821335 0.08457654 0.2563713 0.9628711 0.1086015 -0.5037586 0.8569906 0.1278237 -0.5056849 0.8531965 0.05368858 0.246138 0.9677467 0 -0.5365718 0.8438547 0.5337422 -0.4299545 0.7281884 0.8499131 -0.0631603 0.5231239 0.3533295 -0.4983541 0.7917079 0.2132649 -0.9580563 0.191432 0.274649 -0.9457787 0.173409 0.1510324 -0.9683959 0.1984911 -0.03305965 0.8418439 0.5387077 0.01268208 0.2364865 0.9715521 0.0325821 0.2425868 0.9695824 0.8818586 -0.07474029 0.4655529 0.9464516 0.3227121 -0.009286224 0.8682649 -0.08977347 0.4879106 -0.004211485 0.847068 0.5314679 0.9548456 -0.118988 0.272235 0.9655579 0.2512315 -0.06768065 0.1331245 0.8539462 0.5030445 0.2010003 0.2814307 0.938294 0.8815181 -0.08596068 0.4642592 0.9474908 0.3197643 0.003463685 0.8918181 -0.06147772 0.4481976 -0.02885097 0.843555 0.5362673 0.504818 -0.6772662 -0.5352284 0.1797167 -0.8123819 -0.554741 0.720843 -0.5031809 -0.4766492 0.8862656 -0.4322916 0.1663052 0.8089548 0.001209616 0.5878695 0.719847 0.6522008 0.2376016 0.6880457 0.1465467 0.710716 0.9440881 0.3294442 -0.01281744 0.8624909 -0.09029626 0.4979519 0.3040837 -0.7722862 -0.5577698 0.01657533 -0.8454875 -0.5337381 0.08085817 -0.8352264 -0.5439291 0.928967 0.3697702 0.01703888 0.1243803 -0.8261794 -0.5495063 0.4130254 0.8119253 0.4125378 0.4308159 0.2493203 0.867316 0.8940642 -0.2469323 -0.3737296 0.9459233 -0.2350187 0.2235968 0.04273164 -0.8419422 -0.537873 0.9655678 0.2303029 0.1209934 0.9649751 -0.007217049 -0.2622421 0.8798012 0.4673011 0.087062 -0.03101825 0.8415727 0.5392525 0.001074612 0.2350375 0.9719857 0.9447885 0.3274134 -0.0132445 -0.01985049 0.8431788 0.5372667 2.6771e-7 0.230158 0.9731534 0 -0.5126758 0.8585823 -0.06038999 -0.5370939 0.841358 -0.02855116 -0.5386411 0.8420515 -0.02681994 -0.5369925 0.8431607 -0.1617529 -0.5415918 0.8249331 -0.1475771 -0.5393177 0.8290702 -0.1389557 -0.540863 0.8295532 -0.08780914 -0.5376478 0.8385849 -0.1125079 -0.532998 0.8386031 -0.1177256 -0.538699 0.8342327 -0.1274796 -0.5450421 0.8286604 -0.166885 -0.5414181 0.8240243 -0.1745781 -0.5401737 0.8232465 -0.1838285 -0.5398443 0.8214471 -0.1689509 -0.5388619 0.8252778 -0.1559787 -0.5398176 0.8272047 -0.1136915 -0.5394242 0.8343236 -0.07329624 -0.5460873 0.8345156 -0.0690937 -0.5411207 0.8381018 -0.2253741 -0.5291681 0.818039 -0.173169 -0.5395689 0.8239406 -0.1429519 -0.5372189 0.8312404 -0.154182 -0.5380871 0.8286677 -0.03119975 -0.5478439 0.8359985 -0.03005915 -0.542289 0.8396542 -0.02419877 -0.5366698 0.8434453 -0.09829068 -0.5371503 0.8377402 -0.06480991 -0.5382035 0.8403194 -0.1250448 -0.5371626 0.8341584 -0.1321882 -0.5376865 0.8327182 -0.2582526 -0.5220453 0.8128803 -0.2005476 -0.5377285 0.8189193 -0.05721795 -0.5359011 0.8423396 -0.05408161 -0.5370686 0.8418032 -0.2180939 -0.5364529 0.8152628 -0.1961653 -0.5412123 0.8176848 -0.1827287 -0.5388443 0.8223484 -0.3093329 -0.5137807 0.8002142 -0.2379543 -0.5363542 0.8097543 -0.02548348 -0.5355557 0.8441154 -0.4745397 -0.4514098 0.7556727 -0.6133263 -0.3747413 0.6952697 -0.4982318 -0.4351959 0.7499132 -0.504417 -0.4340557 0.746431 -0.3889724 -0.4810551 0.7856758 -0.4520325 -0.4551782 0.7671242 -0.4080874 -0.4703635 0.7824468 -0.3547843 -0.4912217 0.7955058 -0.3490737 -0.489956 0.7988058 -0.427421 -0.4717633 0.771201 -0.03182268 -0.5504724 0.8342466 -0.2820093 -0.5173575 0.807968 -0.3227178 -0.5000779 0.8036015 -0.2448219 -0.5233561 0.8161866 -0.2070097 -0.5391466 0.8163749 -0.1325922 -0.5354372 0.8341021 -0.2033383 -0.5342882 0.8204814 -0.1533123 -0.5382882 0.8286986 -0.5711231 -0.401604 0.7159138 -0.1216962 -0.5434898 0.8305473 -0.1059247 -0.53749 0.836591 -0.3381605 -0.5065886 0.7931051 -0.03216785 -0.55173 0.8334023 -0.1305377 -0.5460944 0.8274908 -0.08726501 -0.973877 0.2096387 -0.07811069 -0.5494953 0.8318375 -0.3861119 -0.9092367 0.1555837 -0.2137446 -0.5386679 0.8149541 -0.257921 -0.5312481 0.807002 -0.03669965 -0.9767673 0.2111371 -0.5623022 -0.8123877 0.1544109 -0.09306836 -0.5363187 0.8388686 -0.5956321 -0.3878212 0.7034325 -0.6088491 -0.3784243 0.6972072 -0.0230472 -0.510613 0.8595018 -0.0506702 -0.5075623 0.8601239 -0.02347505 -0.5323653 0.8461892 -0.2006583 -0.5168327 0.8322381 -0.1496122 -0.5130761 0.8452036 -0.08147829 -0.5041855 0.8597432 -0.05204743 -0.5320525 0.8451102 -0.2499878 -0.5178083 0.8181569 -0.2900287 -0.5067169 0.811863 -0.9412025 -0.04039055 0.3354201 -0.1278235 -0.5056851 0.8531963 -0.749132 -0.6456991 0.1478984 -0.3546038 -0.5021937 0.7887064 -0.4533808 -0.4625103 0.7619253 -0.0764203 -0.5483083 0.8327774 -0.178212 -0.5418936 0.8213354 -0.1086028 -0.5037588 0.8569905 -0.08457672 0.2563728 0.9628707 -0.05368971 0.2461392 0.9677463 -0.08417397 -0.5320775 0.8425012 -0.533744 -0.4299542 0.7281873 -0.8499141 -0.06316083 0.5231222 -0.8624904 -0.09029728 0.4979525 -0.3533293 -0.4983542 0.791708 -0.2515955 -0.5333254 0.8076285 -0.2132655 -0.958056 0.1914327 -0.2746491 -0.9457791 0.173407 -0.1510323 -0.9683959 0.1984911 -0.01268208 0.2364861 0.9715522 0.03305959 0.8418427 0.5387095 -0.03258204 0.242586 0.9695826 -0.8818579 -0.07474154 0.4655539 -0.9464516 0.3227121 -0.009286224 -0.9447885 0.3274134 -0.0132445 0.004210948 0.84707 0.5314647 -0.9548456 -0.1189882 0.2722352 -0.9655579 0.2512316 -0.06768065 -0.9734554 0.1427246 -0.1789256 -0.1331244 0.853946 0.5030449 -0.2010002 0.2814306 0.9382941 -0.8815184 -0.0859611 0.4642587 -0.9474908 0.3197643 0.003463685 -0.9655678 0.2303029 0.1209934 0.02885103 0.8435565 0.5362649 -0.504818 -0.6772674 -0.5352267 -0.179715 -0.8123803 -0.5547438 -0.1243803 -0.8261794 -0.5495063 -0.8862664 -0.4322904 0.1663035 -0.7208425 -0.5031791 -0.4766519 -0.8089569 0.001210212 0.5878667 -0.719847 0.6522008 0.2376016 -0.8798011 0.467301 0.08706194 -0.8682643 -0.08977437 0.4879118 -0.9440881 0.3294442 -0.01281744 -0.3040852 -0.7722864 -0.5577687 -0.01657533 -0.8454875 -0.5337381 0 -0.8466093 -0.5322149 -0.08085817 -0.8352264 -0.5439291 -0.04273164 -0.8419422 -0.537873 -0.928967 0.3697702 0.01703888 -0.6880463 0.1465474 0.7107152 -0.4130256 0.8119257 0.4125368 -0.9459236 -0.2350183 0.2235961 -0.8940641 -0.2469323 -0.37373 -0.9649755 -0.007217109 -0.262241 -0.001074612 0.2350375 0.9719857 0.03101825 0.8415723 0.5392532 -0.8918181 -0.06147772 0.4481976 -0.4308164 0.2493209 0.8673157 0.01985049 0.8431788 0.5372669 0.9734551 0.1427249 -0.1789268 4.10469e-7 0.8414644 0.5403126</float_array>
          <technique_common>
            <accessor source="#Plane_004-mesh-normals-array" count="298" stride="3">
              <param name="X" type="float"/>
              <param name="Y" type="float"/>
              <param name="Z" type="float"/>
            </accessor>
          </technique_common>
        </source>
        <source id="Plane_004-mesh-map-0">
          <float_array id="Plane_004-mesh-map-0-array" count="3228">0.5609908 0.5569486 0.5934999 0.5939502 0.558681 0.5922881 0.6863757 0.6471608 0.671553 0.6217842 0.6919781 0.6236217 0.6418559 0.6605704 0.6186339 0.6423829 0.6445536 0.6440104 0.6717857 0.4887302 0.6459664 0.4497189 0.6776928 0.4547422 0.6968441 0.6031619 0.6829712 0.5676829 0.7046373 0.57037 0.6055808 0.4806184 0.6351713 0.5249956 0.6011874 0.5218255 0.6964959 0.6481367 0.6919781 0.6236217 0.702502 0.6248996 0.6584005 0.5645112 0.6351713 0.5249956 0.6647264 0.5285981 0.5663815 0.4779628 0.6011874 0.5218255 0.5636034 0.5195376 0.5555142 0.6395949 0.5213411 0.6131929 0.5571576 0.6143 0.6250101 0.59611 0.5971704 0.5589153 0.6299118 0.5615584 0.6486687 0.6196631 0.6250101 0.59611 0.6523969 0.5984842 0.707755 0.6047186 0.7046373 0.57037 0.7161987 0.5724025 0.5911772 0.6157744 0.6186339 0.6423829 0.5886676 0.6408522 0.7128276 0.5358842 0.6983937 0.4934865 0.7219365 0.4976069 0.7248666 0.5384192 0.7219365 0.4976069 0.7346644 0.5007573 0.5886676 0.6408522 0.5571576 0.6143 0.5911772 0.6157744 0.5251088 0.4762981 0.5636034 0.5195376 0.5239599 0.5180426 0.522926 0.5556048 0.558681 0.5922881 0.5219495 0.5910871 0.7595316 0.478214 0.7454686 0.5044166 0.7527269 0.4740957 0.7385318 0.5427529 0.7261074 0.5746922 0.7351667 0.5413434 0.718441 0.6068001 0.712409 0.6264901 0.7173317 0.6065 0.7248666 0.5384192 0.7454686 0.5044166 0.7351667 0.5413434 0.5688475 0.4422478 0.6055808 0.4806184 0.5663815 0.4779628 0.7173317 0.6065 0.7161987 0.5724025 0.7261074 0.5746922 0.7058044 0.6492781 0.702502 0.6248996 0.712409 0.6264901 0.671553 0.6217842 0.6523969 0.5984842 0.6759402 0.6010028 0.6829712 0.5676829 0.6647264 0.5285981 0.6902433 0.5325117 0.7050889 0.4602198 0.6717857 0.4887302 0.6776928 0.4547422 0.6632965 0.6619419 0.6445536 0.6440104 0.6666049 0.6456823 0.6863757 0.6471608 0.6924301 0.6639582 0.6825592 0.6631801 0.702502 0.6248996 0.6968441 0.6031619 0.707755 0.6047186 0.6902433 0.5325117 0.6717857 0.4887302 0.6983937 0.4934865 0.7261074 0.5746922 0.7248666 0.5384192 0.7351667 0.5413434 0.7506874 0.507107 0.7351667 0.5413434 0.7454686 0.5044166 0.5239599 0.5180426 0.5609908 0.5569486 0.522926 0.5556048 0.7046373 0.57037 0.6902433 0.5325117 0.7128276 0.5358842 0.5636034 0.5195376 0.5971704 0.5589153 0.5609908 0.5569486 0.6647264 0.5285981 0.6409983 0.4843887 0.6717857 0.4887302 0.6011874 0.5218255 0.6299118 0.5615584 0.5971704 0.5589153 0.7346644 0.5007573 0.7527269 0.4740957 0.7454686 0.5044166 0.5266949 0.4186695 0.5701356 0.4235957 0.5265986 0.4221676 0.6118651 0.4225277 0.6489174 0.4291495 0.6114889 0.4260063 0.7094927 0.438398 0.7353267 0.4413327 0.7345168 0.4447367 0.5703766 0.420105 0.6114889 0.4260063 0.5701356 0.4235957 0.7345168 0.4447367 0.74837 0.4472195 0.747512 0.4506119 0.6759402 0.6010028 0.6584005 0.5645112 0.6829712 0.5676829 0.712409 0.6264901 0.707755 0.6047186 0.7173317 0.6065 0.7282238 0.5754023 0.7173317 0.6065 0.7261074 0.5746922 0.5219495 0.5910871 0.5571576 0.6143 0.5213411 0.6131929 0.6523969 0.5984842 0.6299118 0.5615584 0.6584005 0.5645112 0.6219562 0.6176398 0.5934999 0.5939502 0.6250101 0.59611 0.6919781 0.6236217 0.6759402 0.6010028 0.6968441 0.6031619 0.558681 0.5922881 0.5911772 0.6157744 0.5571576 0.6143 0.7598412 0.4687572 0.7600349 0.4733834 0.7527269 0.4740957 0.553865 0.6666368 0.5201662 0.6558813 0.5544599 0.6567947 0.5860875 0.6684094 0.5544599 0.6567947 0.5870559 0.6579025 0.6912599 0.6705292 0.6825592 0.6631801 0.6924301 0.6639582 0.6151326 0.6702491 0.5870559 0.6579025 0.6164858 0.6592075 0.6955686 0.6676112 0.6924301 0.6639582 0.7009372 0.6599658 0.7617524 0.4795631 0.7506874 0.507107 0.7595316 0.478214 0.6955686 0.6676112 0.6912599 0.6705292 0.6924301 0.6639582 0.6810861 0.6729388 0.6632965 0.6619419 0.6825592 0.6631801 0.747512 0.4506119 0.754661 0.4520763 0.7527879 0.454801 0.7219365 0.4976069 0.7050889 0.4602198 0.7296701 0.4651052 0.6093981 0.4453327 0.6409983 0.4843887 0.6055808 0.4806184 0.5260976 0.4403707 0.5663815 0.4779628 0.5251088 0.4762981 0.7050889 0.4602198 0.6813448 0.4335634 0.7094927 0.438398 0.6776928 0.4547422 0.6489174 0.4291495 0.6813448 0.4335634 0.7600349 0.4733834 0.7595316 0.478214 0.7527269 0.4740957 0.6605933 0.6764115 0.6401495 0.6717091 0.6612566 0.6728646 0.6396024 0.6752756 0.6151326 0.6702491 0.6401495 0.6717091 0.6666049 0.6456823 0.6486687 0.6196631 0.671553 0.6217842 0.7009372 0.6599658 0.6964959 0.6481367 0.7058044 0.6492781 0.5870559 0.6579025 0.5555142 0.6395949 0.5886676 0.6408522 0.5886676 0.6408522 0.6164858 0.6592075 0.5870559 0.6579025 0.5544599 0.6567947 0.5206418 0.6386011 0.5555142 0.6395949 0.6445536 0.6440104 0.6219562 0.6176398 0.6486687 0.6196631 0.6825592 0.6631801 0.6666049 0.6456823 0.6863757 0.6471608 0.7527879 0.454801 0.7572522 0.4608181 0.7527269 0.4740957 0.712409 0.6264901 0.7077285 0.6497098 0.7058044 0.6492781 0.7572522 0.4608181 0.7598412 0.4687572 0.7527269 0.4740957 0.7161987 0.5724025 0.7128276 0.5358842 0.7248666 0.5384192 0.7219365 0.4976069 0.7427845 0.469318 0.7346644 0.5007573 0.5265986 0.4221676 0.5688475 0.4422478 0.5260976 0.4403707 0.6114889 0.4260063 0.6459664 0.4497189 0.6093981 0.4453327 0.7050889 0.4602198 0.7345168 0.4447367 0.7296701 0.4651052 0.5701356 0.4235957 0.6093981 0.4453327 0.5688475 0.4422478 0.7296701 0.4651052 0.747512 0.4506119 0.7427845 0.469318 0.7094927 0.438398 0.6819394 0.4301153 0.7101851 0.434968 0.6813448 0.4335634 0.6494143 0.425686 0.6819394 0.4301153 0.6142392 0.6763244 0.5857564 0.6720032 0.6146933 0.6738301 0.7306931 0.5762308 0.7232575 0.6080794 0.7209555 0.6074801 0.6603152 0.6790631 0.6396024 0.6752756 0.6605933 0.6764115 0.7625275 0.4731391 0.7642219 0.4799903 0.7617524 0.4795631 0.6807076 0.6793028 0.6605933 0.6764115 0.6805487 0.6765079 0.7525146 0.5081114 0.7432397 0.5443273 0.7409335 0.5437589 0.6392185 0.6778596 0.6146933 0.6738301 0.6396024 0.6752756 0.749895 0.445451 0.754661 0.4520763 0.74837 0.4472195 0.6819394 0.4301153 0.7107139 0.4325817 0.7101851 0.434968 0.7568098 0.4507972 0.7598926 0.4591742 0.754661 0.4520763 0.7029595 0.66084 0.6992834 0.6714212 0.6973113 0.6696414 0.7209555 0.6074801 0.7173063 0.6277127 0.7149482 0.6270729 0.736266 0.4390785 0.74837 0.4472195 0.7353267 0.4413327 0.5266949 0.4186695 0.5700458 0.4179617 0.5703766 0.420105 0.6118651 0.4225277 0.649469 0.423525 0.6494143 0.425686 0.7149482 0.6270729 0.7100471 0.650458 0.7077285 0.6497098 0.6494143 0.425686 0.6822226 0.4278518 0.6819394 0.4301153 0.6973113 0.6696414 0.6917244 0.67662 0.6906269 0.6740825 0.7624525 0.4585335 0.7622165 0.4669694 0.7598926 0.4591742 0.5703766 0.420105 0.6116995 0.4204396 0.6118651 0.4225277 0.7617524 0.4795631 0.7551935 0.5088022 0.7525146 0.5081114 0.7649284 0.4668971 0.7625275 0.4731391 0.7622165 0.4669694 0.7107139 0.4325817 0.7353267 0.4413327 0.7101851 0.434968 0.7077285 0.6497098 0.7052466 0.6619015 0.7029595 0.66084 0.5852335 0.6744453 0.5536473 0.670239 0.5857564 0.6720032 0.7409335 0.5437589 0.7330668 0.5768381 0.7306931 0.5762308 0.6917244 0.67662 0.6805487 0.6765079 0.6906269 0.6740825 0.5530829 0.6726812 0.5198094 0.6688439 0.5536473 0.670239 0.6401495 0.6717091 0.6164858 0.6592075 0.6418559 0.6605704 0.6612566 0.6728646 0.6418559 0.6605704 0.6632965 0.6619419 0.6805487 0.6765079 0.6612566 0.6728646 0.6810861 0.6729388 0.6146933 0.6738301 0.5860875 0.6684094 0.6151326 0.6702491 0.6906269 0.6740825 0.6810861 0.6729388 0.6912599 0.6705292 0.5857564 0.6720032 0.553865 0.6666368 0.5860875 0.6684094 0.5536473 0.670239 0.5199087 0.6652359 0.553865 0.6666368 0.6955686 0.6676112 0.7029595 0.66084 0.6973113 0.6696414 0.6973113 0.6696414 0.6912599 0.6705292 0.6955686 0.6676112 0.7209555 0.6074801 0.7282238 0.5754023 0.7306931 0.5762308 0.7029595 0.66084 0.7058044 0.6492781 0.7077285 0.6497098 0.7525146 0.5081114 0.7385318 0.5427529 0.7506874 0.507107 0.7149482 0.6270729 0.718441 0.6068001 0.7209555 0.6074801 0.7409335 0.5437589 0.7282238 0.5754023 0.7385318 0.5427529 0.7527269 0.4740957 0.7427845 0.469318 0.7527879 0.454801 0.7598926 0.4591742 0.7527879 0.454801 0.754661 0.4520763 0.7622165 0.4669694 0.7572522 0.4608181 0.7598926 0.4591742 0.7625275 0.4731391 0.7595316 0.478214 0.7600349 0.4733834 0.7625275 0.4731391 0.7598412 0.4687572 0.7622165 0.4669694 0.7427845 0.469318 0.747512 0.4506119 0.7527879 0.454801 0.4503499 0.5900104 0.484845 0.5548529 0.4852075 0.5902659 0.354688 0.6380318 0.370884 0.6135089 0.3745101 0.6376432 0.4225899 0.6369871 0.3984028 0.6538699 0.3966201 0.6371866 0.4058961 0.4431115 0.37797 0.4806437 0.3739414 0.4463821 0.3466555 0.5935238 0.3624587 0.5588615 0.3676466 0.5925177 0.4125343 0.5188682 0.444521 0.4761856 0.4466412 0.5175719 0.3445295 0.6384497 0.3503888 0.6142202 0.354688 0.6380318 0.4125343 0.5188682 0.3871669 0.5570461 0.3828258 0.5208394 0.4466412 0.5175719 0.4838069 0.4756901 0.4842941 0.5173549 0.4857676 0.6376753 0.5213411 0.6131929 0.5206418 0.6386011 0.4187687 0.5904337 0.4486119 0.5548266 0.4503499 0.5900104 0.4187687 0.5904337 0.3938504 0.6126498 0.3912926 0.591298 0.3356756 0.5944781 0.3406777 0.5603529 0.3466555 0.5935238 0.4225899 0.6369871 0.4514685 0.6119292 0.4525951 0.6371071 0.3343966 0.525469 0.3511407 0.4839292 0.3571323 0.5233437 0.3222363 0.5273379 0.327407 0.4867483 0.3343966 0.525469 0.4525951 0.6371071 0.4855177 0.6123282 0.4857676 0.6376753 0.4842941 0.5173549 0.5251088 0.4762981 0.5239599 0.5180426 0.4852075 0.5902659 0.522926 0.5556048 0.5219495 0.5910871 0.3035359 0.4922535 0.2909353 0.4653171 0.2979562 0.4615793 0.3083535 0.5309133 0.3190025 0.5634877 0.3168502 0.5640804 0.3248912 0.5959687 0.3260154 0.5957301 0.329831 0.6159606 0.3035359 0.4922535 0.3222363 0.5273379 0.3117911 0.5296911 0.444521 0.4761856 0.4833092 0.4398936 0.4838069 0.4756901 0.3260154 0.5957301 0.3290221 0.5617465 0.3356756 0.5944781 0.3351724 0.6390773 0.3398106 0.6149174 0.3445295 0.6384497 0.3912926 0.591298 0.370884 0.6135089 0.3676466 0.5925177 0.3828258 0.5208394 0.3624587 0.5588615 0.3571323 0.5233437 0.3462855 0.4503445 0.37797 0.4806437 0.3511407 0.4839292 0.3966201 0.6371866 0.3769193 0.65406 0.3745101 0.6376432 0.3477188 0.6544708 0.354688 0.6380318 0.3576177 0.6542367 0.3398106 0.6149174 0.3466555 0.5935238 0.3503888 0.6142202 0.37797 0.4806437 0.3571323 0.5233437 0.3511407 0.4839292 0.3190025 0.5634877 0.3222363 0.5273379 0.3290221 0.5617465 0.298177 0.4946528 0.3117911 0.5296911 0.3083535 0.5309133 0.484845 0.5548529 0.5239599 0.5180426 0.522926 0.5556048 0.3406777 0.5603529 0.3571323 0.5233437 0.3624587 0.5588615 0.4486119 0.5548266 0.4842941 0.5173549 0.484845 0.5548529 0.4089498 0.4780021 0.3828258 0.5208394 0.37797 0.4806437 0.4157748 0.5556647 0.4466412 0.5175719 0.4486119 0.5548266 0.2979562 0.4615793 0.314525 0.489194 0.3035359 0.4922535 0.4830491 0.4211989 0.5266949 0.4186695 0.5265986 0.4221676 0.4040809 0.4224109 0.4414415 0.4178371 0.4416257 0.4213311 0.3171323 0.4298228 0.3430885 0.4283136 0.3177537 0.4332664 0.4416257 0.4213311 0.4830003 0.4177002 0.4830491 0.4211989 0.3177537 0.4332664 0.3037849 0.4349833 0.3171323 0.4298228 0.3871669 0.5570461 0.3676466 0.5925177 0.3624587 0.5588615 0.329831 0.6159606 0.3356756 0.5944781 0.3398106 0.6149174 0.3168502 0.5640804 0.3260154 0.5957301 0.3248912 0.5959687 0.4855177 0.6123282 0.5219495 0.5910871 0.5213411 0.6131929 0.4157748 0.5556647 0.3912926 0.591298 0.3871669 0.5570461 0.4206336 0.6120988 0.4503499 0.5900104 0.4514685 0.6119292 0.3503888 0.6142202 0.3676466 0.5925177 0.370884 0.6135089 0.4514685 0.6119292 0.4852075 0.5902659 0.4855177 0.6123282 0.2911463 0.4558575 0.2979562 0.4615793 0.2906985 0.460466 0.4859268 0.6647669 0.5201662 0.6558813 0.5199087 0.6652359 0.4536555 0.6647645 0.4858741 0.6549071 0.4859268 0.6647669 0.3485259 0.6610962 0.3576177 0.6542367 0.3585518 0.6640618 0.4245532 0.6650038 0.4532665 0.6542204 0.4536555 0.6647645 0.3443843 0.6579456 0.3394443 0.6500166 0.3477188 0.6544708 0.298177 0.4946528 0.2886437 0.4665419 0.2909353 0.4653171 0.3443843 0.6579456 0.3477188 0.6544708 0.3485259 0.6610962 0.3585518 0.6640618 0.3769193 0.65406 0.3783553 0.6650783 0.2972362 0.4394866 0.304455 0.4384177 0.2989566 0.4423103 0.327407 0.4867483 0.3462855 0.4503445 0.3511407 0.4839292 0.4089498 0.4780021 0.4426502 0.4407433 0.444521 0.4761856 0.4838069 0.4756901 0.5260976 0.4403707 0.5251088 0.4762981 0.37146 0.4250344 0.3462855 0.4503445 0.3430885 0.4283136 0.4040809 0.4224109 0.3739414 0.4463821 0.37146 0.4250344 0.2906985 0.460466 0.2979562 0.4615793 0.2909353 0.4653171 0.3994939 0.6650855 0.3788225 0.6686564 0.3783553 0.6650783 0.4245532 0.6650038 0.3998439 0.6686768 0.3994939 0.6650855 0.3938504 0.6126498 0.3745101 0.6376432 0.370884 0.6135089 0.3445295 0.6384497 0.3394443 0.6500166 0.3351724 0.6390773 0.4532665 0.6542204 0.4857676 0.6376753 0.4858741 0.6549071 0.4238093 0.6539044 0.4525951 0.6371071 0.4532665 0.6542204 0.4858741 0.6549071 0.5206418 0.6386011 0.5201662 0.6558813 0.4206336 0.6120988 0.3966201 0.6371866 0.3938504 0.6126498 0.3576177 0.6542367 0.3745101 0.6376432 0.3769193 0.65406 0.2989566 0.4423103 0.2979562 0.4615793 0.2941682 0.4480728 0.329831 0.6159606 0.3332273 0.6394026 0.3272637 0.6164029 0.2941682 0.4480728 0.2979562 0.4615793 0.2911463 0.4558575 0.3290221 0.5617465 0.3343966 0.525469 0.3406777 0.5603529 0.3081464 0.4573557 0.327407 0.4867483 0.314525 0.489194 0.4833092 0.4398936 0.5265986 0.4221676 0.5260976 0.4403707 0.4058961 0.4431115 0.4416257 0.4213311 0.4426502 0.4407433 0.3177537 0.4332664 0.3462855 0.4503445 0.3214727 0.4538705 0.4426502 0.4407433 0.4830491 0.4211989 0.4833092 0.4398936 0.3214727 0.4538705 0.304455 0.4384177 0.3177537 0.4332664 0.3710559 0.4215588 0.3430885 0.4283136 0.3425859 0.4248506 0.4037753 0.4189253 0.37146 0.4250344 0.3710559 0.4215588 0.4537885 0.6683711 0.425111 0.6711191 0.4247949 0.6686035 0.3143391 0.5647718 0.3200117 0.5969812 0.3119356 0.5652476 0.3998439 0.6686768 0.3789544 0.6713192 0.3788225 0.6686564 0.2882232 0.460085 0.2861544 0.4668326 0.2855495 0.4601719 0.3788225 0.6686564 0.3585797 0.6704369 0.3588921 0.667655 0.2962974 0.4955551 0.3035662 0.5322263 0.2935846 0.4960975 0.4247949 0.6686035 0.4000853 0.6712779 0.3998439 0.6686768 0.2972362 0.4394866 0.3023595 0.4331335 0.3037849 0.4349833 0.3710559 0.4215588 0.3421891 0.4224389 0.3708975 0.4192832 0.2916221 0.4462862 0.2951609 0.4380913 0.2972362 0.4394866 0.337377 0.6507782 0.3404654 0.6615456 0.335035 0.6517122 0.3223432 0.5965094 0.324874 0.616912 0.3200117 0.5969812 0.3037849 0.4349833 0.3163184 0.4275203 0.3171323 0.4298228 0.5266949 0.4186695 0.4834485 0.4155783 0.5267577 0.4163886 0.4414415 0.4178371 0.4038395 0.4167646 0.4417216 0.4157613 0.3272637 0.6164029 0.3308712 0.6400222 0.324874 0.616912 0.4037753 0.4189253 0.3708975 0.4192832 0.4038395 0.4167646 0.3425325 0.659877 0.3477271 0.6671523 0.3404654 0.6615456 0.288873 0.4539418 0.2891014 0.4455057 0.2916221 0.4462862 0.4830003 0.4177002 0.4417216 0.4157613 0.4834485 0.4155783 0.2886437 0.4665419 0.2935846 0.4960975 0.2861544 0.4668326 0.2882232 0.460085 0.2861692 0.4537204 0.288873 0.4539418 0.3171323 0.4298228 0.3421891 0.4224389 0.3425859 0.4248506 0.3332273 0.6394026 0.335035 0.6517122 0.3308712 0.6400222 0.4859459 0.6683757 0.4541763 0.6708383 0.4537885 0.6683711 0.3059002 0.5317857 0.3119356 0.5652476 0.3035662 0.5322263 0.3588921 0.667655 0.3477271 0.6671523 0.3489626 0.6646789 0.5198094 0.6688439 0.4863752 0.6708453 0.4859459 0.6683757 0.4238093 0.6539044 0.3994939 0.6650855 0.3984028 0.6538699 0.3984028 0.6538699 0.3783553 0.6650783 0.3769193 0.65406 0.3588921 0.667655 0.3783553 0.6650783 0.3788225 0.6686564 0.4247949 0.6686035 0.4536555 0.6647645 0.4537885 0.6683711 0.3489626 0.6646789 0.3585518 0.6640618 0.3588921 0.667655 0.4537885 0.6683711 0.4859268 0.6647669 0.4859459 0.6683757 0.4859459 0.6683757 0.5199087 0.6652359 0.5198094 0.6688439 0.337377 0.6507782 0.3443843 0.6579456 0.3425325 0.659877 0.3425325 0.659877 0.3485259 0.6610962 0.3489626 0.6646789 0.3168502 0.5640804 0.3223432 0.5965094 0.3143391 0.5647718 0.3351724 0.6390773 0.337377 0.6507782 0.3332273 0.6394026 0.2962974 0.4955551 0.3083535 0.5309133 0.3059002 0.5317857 0.3248912 0.5959687 0.3272637 0.6164029 0.3223432 0.5965094 0.3059002 0.5317857 0.3168502 0.5640804 0.3143391 0.5647718 0.2979562 0.4615793 0.2989566 0.4423103 0.3081464 0.4573557 0.2989566 0.4423103 0.2916221 0.4462862 0.2972362 0.4394866 0.2941682 0.4480728 0.288873 0.4539418 0.2916221 0.4462862 0.2882232 0.460085 0.2909353 0.4653171 0.2886437 0.4665419 0.2911463 0.4558575 0.2882232 0.460085 0.288873 0.4539418 0.3081464 0.4573557 0.2989566 0.4423103 0.304455 0.4384177 0.5609908 0.5569486 0.5971704 0.5589153 0.5934999 0.5939502 0.6863757 0.6471608 0.6666049 0.6456823 0.671553 0.6217842 0.6418559 0.6605704 0.6164858 0.6592075 0.6186339 0.6423829 0.6717857 0.4887302 0.6409983 0.4843887 0.6459664 0.4497189 0.6968441 0.6031619 0.6759402 0.6010028 0.6829712 0.5676829 0.6055808 0.4806184 0.6409983 0.4843887 0.6351713 0.5249956 0.6964959 0.6481367 0.6863757 0.6471608 0.6919781 0.6236217 0.6584005 0.5645112 0.6299118 0.5615584 0.6351713 0.5249956 0.5663815 0.4779628 0.6055808 0.4806184 0.6011874 0.5218255 0.5555142 0.6395949 0.5206418 0.6386011 0.5213411 0.6131929 0.6250101 0.59611 0.5934999 0.5939502 0.5971704 0.5589153 0.6486687 0.6196631 0.6219562 0.6176398 0.6250101 0.59611 0.707755 0.6047186 0.6968441 0.6031619 0.7046373 0.57037 0.5911772 0.6157744 0.6219562 0.6176398 0.6186339 0.6423829 0.7128276 0.5358842 0.6902433 0.5325117 0.6983937 0.4934865 0.7248666 0.5384192 0.7128276 0.5358842 0.7219365 0.4976069 0.5886676 0.6408522 0.5555142 0.6395949 0.5571576 0.6143 0.5251088 0.4762981 0.5663815 0.4779628 0.5636034 0.5195376 0.522926 0.5556048 0.5609908 0.5569486 0.558681 0.5922881 0.7595316 0.478214 0.7506874 0.507107 0.7454686 0.5044166 0.7385318 0.5427529 0.7282238 0.5754023 0.7261074 0.5746922 0.7248666 0.5384192 0.7346644 0.5007573 0.7454686 0.5044166 0.5688475 0.4422478 0.6093981 0.4453327 0.6055808 0.4806184 0.7173317 0.6065 0.707755 0.6047186 0.7161987 0.5724025 0.7058044 0.6492781 0.6964959 0.6481367 0.702502 0.6248996 0.671553 0.6217842 0.6486687 0.6196631 0.6523969 0.5984842 0.6829712 0.5676829 0.6584005 0.5645112 0.6647264 0.5285981 0.7050889 0.4602198 0.6983937 0.4934865 0.6717857 0.4887302 0.6632965 0.6619419 0.6418559 0.6605704 0.6445536 0.6440104 0.6863757 0.6471608 0.6964959 0.6481367 0.6924301 0.6639582 0.702502 0.6248996 0.6919781 0.6236217 0.6968441 0.6031619 0.6902433 0.5325117 0.6647264 0.5285981 0.6717857 0.4887302 0.7261074 0.5746922 0.7161987 0.5724025 0.7248666 0.5384192 0.7506874 0.507107 0.7385318 0.5427529 0.7351667 0.5413434 0.5239599 0.5180426 0.5636034 0.5195376 0.5609908 0.5569486 0.7046373 0.57037 0.6829712 0.5676829 0.6902433 0.5325117 0.5636034 0.5195376 0.6011874 0.5218255 0.5971704 0.5589153 0.6647264 0.5285981 0.6351713 0.5249956 0.6409983 0.4843887 0.6011874 0.5218255 0.6351713 0.5249956 0.6299118 0.5615584 0.7346644 0.5007573 0.7427845 0.469318 0.7527269 0.4740957 0.5266949 0.4186695 0.5703766 0.420105 0.5701356 0.4235957 0.6118651 0.4225277 0.6494143 0.425686 0.6489174 0.4291495 0.7094927 0.438398 0.7101851 0.434968 0.7353267 0.4413327 0.5703766 0.420105 0.6118651 0.4225277 0.6114889 0.4260063 0.7345168 0.4447367 0.7353267 0.4413327 0.74837 0.4472195 0.6759402 0.6010028 0.6523969 0.5984842 0.6584005 0.5645112 0.712409 0.6264901 0.702502 0.6248996 0.707755 0.6047186 0.7282238 0.5754023 0.718441 0.6068001 0.7173317 0.6065 0.5219495 0.5910871 0.558681 0.5922881 0.5571576 0.6143 0.6523969 0.5984842 0.6250101 0.59611 0.6299118 0.5615584 0.6219562 0.6176398 0.5911772 0.6157744 0.5934999 0.5939502 0.6919781 0.6236217 0.671553 0.6217842 0.6759402 0.6010028 0.558681 0.5922881 0.5934999 0.5939502 0.5911772 0.6157744 0.553865 0.6666368 0.5199087 0.6652359 0.5201662 0.6558813 0.5860875 0.6684094 0.553865 0.6666368 0.5544599 0.6567947 0.6912599 0.6705292 0.6810861 0.6729388 0.6825592 0.6631801 0.6151326 0.6702491 0.5860875 0.6684094 0.5870559 0.6579025 0.7617524 0.4795631 0.7525146 0.5081114 0.7506874 0.507107 0.6810861 0.6729388 0.6612566 0.6728646 0.6632965 0.6619419 0.747512 0.4506119 0.74837 0.4472195 0.754661 0.4520763 0.7219365 0.4976069 0.6983937 0.4934865 0.7050889 0.4602198 0.6093981 0.4453327 0.6459664 0.4497189 0.6409983 0.4843887 0.5260976 0.4403707 0.5688475 0.4422478 0.5663815 0.4779628 0.7050889 0.4602198 0.6776928 0.4547422 0.6813448 0.4335634 0.6776928 0.4547422 0.6459664 0.4497189 0.6489174 0.4291495 0.6605933 0.6764115 0.6396024 0.6752756 0.6401495 0.6717091 0.6396024 0.6752756 0.6146933 0.6738301 0.6151326 0.6702491 0.6666049 0.6456823 0.6445536 0.6440104 0.6486687 0.6196631 0.7009372 0.6599658 0.6924301 0.6639582 0.6964959 0.6481367 0.5870559 0.6579025 0.5544599 0.6567947 0.5555142 0.6395949 0.5886676 0.6408522 0.6186339 0.6423829 0.6164858 0.6592075 0.5544599 0.6567947 0.5201662 0.6558813 0.5206418 0.6386011 0.6445536 0.6440104 0.6186339 0.6423829 0.6219562 0.6176398 0.6825592 0.6631801 0.6632965 0.6619419 0.6666049 0.6456823 0.712409 0.6264901 0.7149482 0.6270729 0.7077285 0.6497098 0.7161987 0.5724025 0.7046373 0.57037 0.7128276 0.5358842 0.7219365 0.4976069 0.7296701 0.4651052 0.7427845 0.469318 0.5265986 0.4221676 0.5701356 0.4235957 0.5688475 0.4422478 0.6114889 0.4260063 0.6489174 0.4291495 0.6459664 0.4497189 0.7050889 0.4602198 0.7094927 0.438398 0.7345168 0.4447367 0.5701356 0.4235957 0.6114889 0.4260063 0.6093981 0.4453327 0.7296701 0.4651052 0.7345168 0.4447367 0.747512 0.4506119 0.7094927 0.438398 0.6813448 0.4335634 0.6819394 0.4301153 0.6813448 0.4335634 0.6489174 0.4291495 0.6494143 0.425686 0.6142392 0.6763244 0.5852335 0.6744453 0.5857564 0.6720032 0.7306931 0.5762308 0.7330668 0.5768381 0.7232575 0.6080794 0.6603152 0.6790631 0.6392185 0.6778596 0.6396024 0.6752756 0.7625275 0.4731391 0.7651923 0.4733729 0.7642219 0.4799903 0.6807076 0.6793028 0.6603152 0.6790631 0.6605933 0.6764115 0.7525146 0.5081114 0.7551935 0.5088022 0.7432397 0.5443273 0.6392185 0.6778596 0.6142392 0.6763244 0.6146933 0.6738301 0.749895 0.445451 0.7568098 0.4507972 0.754661 0.4520763 0.6819394 0.4301153 0.6822226 0.4278518 0.7107139 0.4325817 0.7568098 0.4507972 0.7624525 0.4585335 0.7598926 0.4591742 0.7029595 0.66084 0.7052466 0.6619015 0.6992834 0.6714212 0.7209555 0.6074801 0.7232575 0.6080794 0.7173063 0.6277127 0.736266 0.4390785 0.749895 0.445451 0.74837 0.4472195 0.5266949 0.4186695 0.5267577 0.4163886 0.5700458 0.4179617 0.6118651 0.4225277 0.6116995 0.4204396 0.649469 0.423525 0.7149482 0.6270729 0.7173063 0.6277127 0.7100471 0.650458 0.6494143 0.425686 0.649469 0.423525 0.6822226 0.4278518 0.6973113 0.6696414 0.6992834 0.6714212 0.6917244 0.67662 0.7624525 0.4585335 0.7649284 0.4668971 0.7622165 0.4669694 0.5703766 0.420105 0.5700458 0.4179617 0.6116995 0.4204396 0.7617524 0.4795631 0.7642219 0.4799903 0.7551935 0.5088022 0.7649284 0.4668971 0.7651923 0.4733729 0.7625275 0.4731391 0.7107139 0.4325817 0.736266 0.4390785 0.7353267 0.4413327 0.7077285 0.6497098 0.7100471 0.650458 0.7052466 0.6619015 0.5852335 0.6744453 0.5530829 0.6726812 0.5536473 0.670239 0.7409335 0.5437589 0.7432397 0.5443273 0.7330668 0.5768381 0.6917244 0.67662 0.6807076 0.6793028 0.6805487 0.6765079 0.5530829 0.6726812 0.5197492 0.6710292 0.5198094 0.6688439 0.6401495 0.6717091 0.6151326 0.6702491 0.6164858 0.6592075 0.6612566 0.6728646 0.6401495 0.6717091 0.6418559 0.6605704 0.6805487 0.6765079 0.6605933 0.6764115 0.6612566 0.6728646 0.6146933 0.6738301 0.5857564 0.6720032 0.5860875 0.6684094 0.6906269 0.6740825 0.6805487 0.6765079 0.6810861 0.6729388 0.5857564 0.6720032 0.5536473 0.670239 0.553865 0.6666368 0.5536473 0.670239 0.5198094 0.6688439 0.5199087 0.6652359 0.6955686 0.6676112 0.7009372 0.6599658 0.7029595 0.66084 0.6973113 0.6696414 0.6906269 0.6740825 0.6912599 0.6705292 0.7209555 0.6074801 0.718441 0.6068001 0.7282238 0.5754023 0.7029595 0.66084 0.7009372 0.6599658 0.7058044 0.6492781 0.7525146 0.5081114 0.7409335 0.5437589 0.7385318 0.5427529 0.7149482 0.6270729 0.712409 0.6264901 0.718441 0.6068001 0.7409335 0.5437589 0.7306931 0.5762308 0.7282238 0.5754023 0.7598926 0.4591742 0.7572522 0.4608181 0.7527879 0.454801 0.7622165 0.4669694 0.7598412 0.4687572 0.7572522 0.4608181 0.7625275 0.4731391 0.7617524 0.4795631 0.7595316 0.478214 0.7625275 0.4731391 0.7600349 0.4733834 0.7598412 0.4687572 0.4503499 0.5900104 0.4486119 0.5548266 0.484845 0.5548529 0.354688 0.6380318 0.3503888 0.6142202 0.370884 0.6135089 0.4225899 0.6369871 0.4238093 0.6539044 0.3984028 0.6538699 0.4058961 0.4431115 0.4089498 0.4780021 0.37797 0.4806437 0.3466555 0.5935238 0.3406777 0.5603529 0.3624587 0.5588615 0.4125343 0.5188682 0.4089498 0.4780021 0.444521 0.4761856 0.3445295 0.6384497 0.3398106 0.6149174 0.3503888 0.6142202 0.4125343 0.5188682 0.4157748 0.5556647 0.3871669 0.5570461 0.4466412 0.5175719 0.444521 0.4761856 0.4838069 0.4756901 0.4857676 0.6376753 0.4855177 0.6123282 0.5213411 0.6131929 0.4187687 0.5904337 0.4157748 0.5556647 0.4486119 0.5548266 0.4187687 0.5904337 0.4206336 0.6120988 0.3938504 0.6126498 0.3356756 0.5944781 0.3290221 0.5617465 0.3406777 0.5603529 0.4225899 0.6369871 0.4206336 0.6120988 0.4514685 0.6119292 0.3343966 0.525469 0.327407 0.4867483 0.3511407 0.4839292 0.3222363 0.5273379 0.314525 0.489194 0.327407 0.4867483 0.4525951 0.6371071 0.4514685 0.6119292 0.4855177 0.6123282 0.4842941 0.5173549 0.4838069 0.4756901 0.5251088 0.4762981 0.4852075 0.5902659 0.484845 0.5548529 0.522926 0.5556048 0.3035359 0.4922535 0.298177 0.4946528 0.2909353 0.4653171 0.3083535 0.5309133 0.3117911 0.5296911 0.3190025 0.5634877 0.3035359 0.4922535 0.314525 0.489194 0.3222363 0.5273379 0.444521 0.4761856 0.4426502 0.4407433 0.4833092 0.4398936 0.3260154 0.5957301 0.3190025 0.5634877 0.3290221 0.5617465 0.3351724 0.6390773 0.329831 0.6159606 0.3398106 0.6149174 0.3912926 0.591298 0.3938504 0.6126498 0.370884 0.6135089 0.3828258 0.5208394 0.3871669 0.5570461 0.3624587 0.5588615 0.3462855 0.4503445 0.3739414 0.4463821 0.37797 0.4806437 0.3966201 0.6371866 0.3984028 0.6538699 0.3769193 0.65406 0.3477188 0.6544708 0.3445295 0.6384497 0.354688 0.6380318 0.3398106 0.6149174 0.3356756 0.5944781 0.3466555 0.5935238 0.37797 0.4806437 0.3828258 0.5208394 0.3571323 0.5233437 0.3190025 0.5634877 0.3117911 0.5296911 0.3222363 0.5273379 0.298177 0.4946528 0.3035359 0.4922535 0.3117911 0.5296911 0.484845 0.5548529 0.4842941 0.5173549 0.5239599 0.5180426 0.3406777 0.5603529 0.3343966 0.525469 0.3571323 0.5233437 0.4486119 0.5548266 0.4466412 0.5175719 0.4842941 0.5173549 0.4089498 0.4780021 0.4125343 0.5188682 0.3828258 0.5208394 0.4157748 0.5556647 0.4125343 0.5188682 0.4466412 0.5175719 0.2979562 0.4615793 0.3081464 0.4573557 0.314525 0.489194 0.4830491 0.4211989 0.4830003 0.4177002 0.5266949 0.4186695 0.4040809 0.4224109 0.4037753 0.4189253 0.4414415 0.4178371 0.3171323 0.4298228 0.3425859 0.4248506 0.3430885 0.4283136 0.4416257 0.4213311 0.4414415 0.4178371 0.4830003 0.4177002 0.3177537 0.4332664 0.304455 0.4384177 0.3037849 0.4349833 0.3871669 0.5570461 0.3912926 0.591298 0.3676466 0.5925177 0.329831 0.6159606 0.3260154 0.5957301 0.3356756 0.5944781 0.3168502 0.5640804 0.3190025 0.5634877 0.3260154 0.5957301 0.4855177 0.6123282 0.4852075 0.5902659 0.5219495 0.5910871 0.4157748 0.5556647 0.4187687 0.5904337 0.3912926 0.591298 0.4206336 0.6120988 0.4187687 0.5904337 0.4503499 0.5900104 0.3503888 0.6142202 0.3466555 0.5935238 0.3676466 0.5925177 0.4514685 0.6119292 0.4503499 0.5900104 0.4852075 0.5902659 0.4859268 0.6647669 0.4858741 0.6549071 0.5201662 0.6558813 0.4536555 0.6647645 0.4532665 0.6542204 0.4858741 0.6549071 0.3485259 0.6610962 0.3477188 0.6544708 0.3576177 0.6542367 0.4245532 0.6650038 0.4238093 0.6539044 0.4532665 0.6542204 0.298177 0.4946528 0.2962974 0.4955551 0.2886437 0.4665419 0.3585518 0.6640618 0.3576177 0.6542367 0.3769193 0.65406 0.2972362 0.4394866 0.3037849 0.4349833 0.304455 0.4384177 0.327407 0.4867483 0.3214727 0.4538705 0.3462855 0.4503445 0.4089498 0.4780021 0.4058961 0.4431115 0.4426502 0.4407433 0.4838069 0.4756901 0.4833092 0.4398936 0.5260976 0.4403707 0.37146 0.4250344 0.3739414 0.4463821 0.3462855 0.4503445 0.4040809 0.4224109 0.4058961 0.4431115 0.3739414 0.4463821 0.3994939 0.6650855 0.3998439 0.6686768 0.3788225 0.6686564 0.4245532 0.6650038 0.4247949 0.6686035 0.3998439 0.6686768 0.3938504 0.6126498 0.3966201 0.6371866 0.3745101 0.6376432 0.3445295 0.6384497 0.3477188 0.6544708 0.3394443 0.6500166 0.4532665 0.6542204 0.4525951 0.6371071 0.4857676 0.6376753 0.4238093 0.6539044 0.4225899 0.6369871 0.4525951 0.6371071 0.4858741 0.6549071 0.4857676 0.6376753 0.5206418 0.6386011 0.4206336 0.6120988 0.4225899 0.6369871 0.3966201 0.6371866 0.3576177 0.6542367 0.354688 0.6380318 0.3745101 0.6376432 0.329831 0.6159606 0.3351724 0.6390773 0.3332273 0.6394026 0.3290221 0.5617465 0.3222363 0.5273379 0.3343966 0.525469 0.3081464 0.4573557 0.3214727 0.4538705 0.327407 0.4867483 0.4833092 0.4398936 0.4830491 0.4211989 0.5265986 0.4221676 0.4058961 0.4431115 0.4040809 0.4224109 0.4416257 0.4213311 0.3177537 0.4332664 0.3430885 0.4283136 0.3462855 0.4503445 0.4426502 0.4407433 0.4416257 0.4213311 0.4830491 0.4211989 0.3214727 0.4538705 0.3081464 0.4573557 0.304455 0.4384177 0.3710559 0.4215588 0.37146 0.4250344 0.3430885 0.4283136 0.4037753 0.4189253 0.4040809 0.4224109 0.37146 0.4250344 0.4537885 0.6683711 0.4541763 0.6708383 0.425111 0.6711191 0.3143391 0.5647718 0.3223432 0.5965094 0.3200117 0.5969812 0.3998439 0.6686768 0.4000853 0.6712779 0.3789544 0.6713192 0.2882232 0.460085 0.2886437 0.4665419 0.2861544 0.4668326 0.3788225 0.6686564 0.3789544 0.6713192 0.3585797 0.6704369 0.2962974 0.4955551 0.3059002 0.5317857 0.3035662 0.5322263 0.4247949 0.6686035 0.425111 0.6711191 0.4000853 0.6712779 0.2972362 0.4394866 0.2951609 0.4380913 0.3023595 0.4331335 0.3710559 0.4215588 0.3425859 0.4248506 0.3421891 0.4224389 0.2916221 0.4462862 0.2891014 0.4455057 0.2951609 0.4380913 0.337377 0.6507782 0.3425325 0.659877 0.3404654 0.6615456 0.3223432 0.5965094 0.3272637 0.6164029 0.324874 0.616912 0.3037849 0.4349833 0.3023595 0.4331335 0.3163184 0.4275203 0.5266949 0.4186695 0.4830003 0.4177002 0.4834485 0.4155783 0.4414415 0.4178371 0.4037753 0.4189253 0.4038395 0.4167646 0.3272637 0.6164029 0.3332273 0.6394026 0.3308712 0.6400222 0.4037753 0.4189253 0.3710559 0.4215588 0.3708975 0.4192832 0.3425325 0.659877 0.3489626 0.6646789 0.3477271 0.6671523 0.288873 0.4539418 0.2861692 0.4537204 0.2891014 0.4455057 0.4830003 0.4177002 0.4414415 0.4178371 0.4417216 0.4157613 0.2886437 0.4665419 0.2962974 0.4955551 0.2935846 0.4960975 0.2882232 0.460085 0.2855495 0.4601719 0.2861692 0.4537204 0.3171323 0.4298228 0.3163184 0.4275203 0.3421891 0.4224389 0.3332273 0.6394026 0.337377 0.6507782 0.335035 0.6517122 0.4859459 0.6683757 0.4863752 0.6708453 0.4541763 0.6708383 0.3059002 0.5317857 0.3143391 0.5647718 0.3119356 0.5652476 0.3588921 0.667655 0.3585797 0.6704369 0.3477271 0.6671523 0.5198094 0.6688439 0.5197492 0.6710292 0.4863752 0.6708453 0.4238093 0.6539044 0.4245532 0.6650038 0.3994939 0.6650855 0.3984028 0.6538699 0.3994939 0.6650855 0.3783553 0.6650783 0.3588921 0.667655 0.3585518 0.6640618 0.3783553 0.6650783 0.4247949 0.6686035 0.4245532 0.6650038 0.4536555 0.6647645 0.3489626 0.6646789 0.3485259 0.6610962 0.3585518 0.6640618 0.4537885 0.6683711 0.4536555 0.6647645 0.4859268 0.6647669 0.4859459 0.6683757 0.4859268 0.6647669 0.5199087 0.6652359 0.337377 0.6507782 0.3394443 0.6500166 0.3443843 0.6579456 0.3425325 0.659877 0.3443843 0.6579456 0.3485259 0.6610962 0.3168502 0.5640804 0.3248912 0.5959687 0.3223432 0.5965094 0.3351724 0.6390773 0.3394443 0.6500166 0.337377 0.6507782 0.2962974 0.4955551 0.298177 0.4946528 0.3083535 0.5309133 0.3248912 0.5959687 0.329831 0.6159606 0.3272637 0.6164029 0.3059002 0.5317857 0.3083535 0.5309133 0.3168502 0.5640804 0.2989566 0.4423103 0.2941682 0.4480728 0.2916221 0.4462862 0.2941682 0.4480728 0.2911463 0.4558575 0.288873 0.4539418 0.2882232 0.460085 0.2906985 0.460466 0.2909353 0.4653171 0.2911463 0.4558575 0.2906985 0.460466 0.2882232 0.460085</float_array>
          <technique_common>
            <accessor source="#Plane_004-mesh-map-0-array" count="1614" stride="2">
              <param name="S" type="float"/>
              <param name="T" type="float"/>
            </accessor>
          </technique_common>
        </source>
        <vertices id="Plane_004-mesh-vertices">
          <input semantic="POSITION" source="#Plane_004-mesh-positions"/>
        </vertices>
        <triangles material="espejo-material" count="538">
          <input semantic="VERTEX" source="#Plane_004-mesh-vertices" offset="0"/>
          <input semantic="NORMAL" source="#Plane_004-mesh-normals" offset="1"/>
          <input semantic="TEXCOORD" source="#Plane_004-mesh-map-0" offset="2" set="0"/>
          <p>22 0 0 63 1 1 66 2 2 0 3 3 28 4 4 1 5 5 37 6 6 91 7 7 95 8 8 39 9 9 80 10 10 82 11 11 15 12 12 27 13 13 20 14 14 6 15 15 47 16 16 45 17 17 94 18 18 1 5 19 33 19 20 40 20 21 47 16 22 52 21 23 21 22 24 45 17 25 48 23 26 92 24 27 12 25 28 23 26 29 65 27 30 10 28 31 17 29 32 41 30 33 65 27 34 70 31 35 68 32 36 20 14 37 32 33 38 13 34 39 91 7 40 90 35 41 24 36 42 26 37 43 29 38 44 50 39 45 29 38 46 31 40 47 90 35 48 23 26 49 13 34 50 5 41 51 48 23 52 44 42 53 9 43 54 66 2 55 62 44 56 152 45 57 7 46 58 83 47 59 150 48 60 8 49 61 46 50 62 151 51 63 11 52 64 64 53 65 50 39 66 7 46 67 46 50 68 78 54 69 6 15 70 21 22 71 64 53 72 32 33 73 8 49 74 88 55 75 33 19 76 11 52 77 28 4 78 70 31 79 67 56 80 27 13 81 52 21 82 49 57 83 77 58 84 39 9 85 82 11 86 25 59 87 95 8 88 93 60 89 0 3 90 30 61 91 43 62 92 33 19 93 15 12 94 68 32 95 49 57 96 39 9 97 26 37 98 8 49 99 50 39 100 46 50 101 147 63 102 46 50 103 7 46 104 44 42 105 22 0 106 9 43 107 20 14 108 49 57 109 24 36 110 48 23 111 10 28 112 22 0 113 52 21 114 16 64 115 39 9 116 45 17 117 17 29 118 10 28 119 31 40 120 83 47 121 7 46 122 53 65 123 125 66 124 131 67 125 54 68 126 129 69 127 130 70 128 126 71 129 42 72 130 132 73 131 57 74 132 130 70 133 125 66 134 132 73 135 59 75 136 128 76 137 67 56 138 40 20 139 27 13 140 11 52 141 68 32 142 64 53 143 148 77 144 64 53 145 8 49 146 62 44 147 23 26 148 12 25 149 70 31 150 17 29 151 40 20 152 18 78 153 63 1 154 65 27 155 1 5 156 67 56 157 15 12 158 66 2 159 13 34 160 23 26 161 153 79 162 149 80 163 83 47 164 139 81 165 2 82 166 19 83 167 141 84 168 19 83 169 3 85 170 142 86 171 43 62 172 30 61 173 137 87 174 3 85 175 14 88 176 145 89 177 30 61 178 146 90 179 84 91 180 147 63 181 152 45 182 145 89 183 142 86 184 30 61 185 143 92 186 25 59 187 43 62 188 128 76 189 81 93 190 155 94 191 29 38 192 77 58 193 38 95 194 55 96 195 16 64 196 6 15 197 79 97 198 21 22 199 5 41 200 77 58 201 127 98 202 126 71 203 82 11 204 129 69 205 127 98 206 149 80 207 152 45 208 83 47 209 72 99 210 138 100 211 144 101 212 73 102 213 137 87 214 138 100 215 93 60 216 41 30 217 28 4 218 146 90 219 94 18 220 88 55 221 3 85 222 92 24 223 90 35 224 90 35 225 14 88 226 3 85 227 19 83 228 89 103 229 92 24 230 95 8 231 18 78 232 41 30 233 43 62 234 93 60 235 0 3 236 155 94 237 154 104 238 83 47 239 11 52 240 96 105 241 88 55 242 154 104 243 153 79 244 83 47 245 32 33 246 24 36 247 50 39 248 29 38 249 61 106 250 31 40 251 131 67 252 78 54 253 79 97 254 130 70 255 80 10 256 55 96 257 77 58 258 132 73 259 38 95 260 125 66 261 55 96 262 78 54 263 38 95 264 128 76 265 61 106 266 126 71 267 60 107 268 58 108 269 127 98 270 56 109 271 60 107 272 117 110 273 76 111 274 74 112 275 35 113 276 113 114 277 69 115 278 115 116 279 73 102 280 72 99 281 99 117 282 121 118 283 84 91 284 122 119 285 72 99 286 85 120 287 34 121 288 105 122 289 51 123 290 116 124 291 74 112 292 73 102 293 111 125 294 81 93 295 59 75 296 60 107 297 110 126 298 58 108 299 120 127 300 97 128 301 81 93 302 4 129 303 124 130 304 87 131 305 69 115 306 103 132 307 36 133 308 104 134 309 59 75 310 42 72 311 53 65 312 109 135 313 57 74 314 54 68 315 108 136 316 56 109 317 36 133 318 133 137 319 96 105 320 56 109 321 112 138 322 60 107 323 87 131 324 123 139 325 86 140 326 134 141 327 98 142 328 97 128 329 57 74 330 107 143 331 54 68 332 84 91 333 101 144 334 34 121 335 135 145 336 99 117 337 98 142 338 110 126 339 42 72 340 58 108 341 96 105 342 100 146 343 4 129 344 119 147 345 71 148 346 76 111 347 51 123 348 102 149 349 35 113 350 123 139 351 85 120 352 86 140 353 114 150 354 75 151 355 71 148 356 138 100 357 14 88 358 37 6 359 144 101 360 37 6 361 25 59 362 85 120 363 144 101 364 143 92 365 74 112 366 141 84 367 137 87 368 86 140 369 143 92 370 142 86 371 76 111 372 139 81 373 141 84 374 71 148 375 140 152 376 139 81 377 145 89 378 4 129 379 87 131 380 87 131 381 142 86 382 145 89 383 69 115 384 148 77 385 35 113 386 4 129 387 88 55 388 96 105 389 34 121 390 150 48 391 147 63 392 36 133 393 151 51 394 69 115 395 51 123 396 148 77 397 150 48 398 83 47 399 61 106 400 155 94 401 97 128 402 155 94 403 81 93 404 98 142 405 154 104 406 97 128 407 99 117 408 152 45 409 149 80 410 99 117 411 153 79 412 98 142 413 61 106 414 128 76 415 155 94 416 212 153 417 174 154 418 215 155 419 156 156 420 180 157 421 239 158 422 237 159 423 189 160 424 241 161 425 227 162 426 191 163 427 229 164 428 167 165 429 179 166 430 216 167 431 198 168 432 160 169 433 196 170 434 240 171 435 157 172 436 156 156 437 198 168 438 192 173 439 203 174 440 196 170 441 173 175 442 199 176 443 238 177 444 12 25 445 89 103 446 214 178 447 163 179 448 212 153 449 214 178 450 193 180 451 219 181 452 217 182 453 172 183 454 167 165 455 237 159 456 165 184 457 236 185 458 176 186 459 178 187 460 200 188 461 201 189 462 181 190 463 176 186 464 236 185 465 175 191 466 238 177 467 199 176 468 5 41 469 44 42 470 215 155 471 9 43 472 62 44 473 161 192 474 294 193 475 230 194 476 292 195 477 162 196 478 290 197 479 293 198 480 213 199 481 164 200 482 161 192 483 201 189 484 197 201 485 160 169 486 226 202 487 173 175 488 213 199 489 184 203 490 217 182 491 235 204 492 185 205 493 240 171 494 219 181 495 180 157 496 216 167 497 203 174 498 179 166 499 200 188 500 225 206 501 191 163 502 178 187 503 241 161 504 177 207 505 239 158 506 182 208 507 156 156 508 195 209 509 185 205 510 167 165 511 157 172 512 191 163 513 200 188 514 178 187 515 162 196 516 201 189 517 184 203 518 289 210 519 197 201 520 292 195 521 174 154 522 44 42 523 9 43 524 172 183 525 200 188 526 179 166 527 163 179 528 199 176 529 174 154 530 168 211 531 203 174 532 191 163 533 169 212 534 196 170 535 163 179 536 230 194 537 183 213 538 161 192 539 269 214 540 53 65 541 131 67 542 273 215 543 204 216 544 274 217 545 194 218 546 270 219 547 275 220 548 274 217 549 207 221 550 269 214 551 275 220 552 209 222 553 194 218 554 192 173 555 216 167 556 179 166 557 164 200 558 217 182 559 185 205 560 290 197 561 213 199 562 293 198 563 175 191 564 62 44 565 12 25 566 169 212 567 219 181 568 192 173 569 170 223 570 212 153 571 165 184 572 157 172 573 216 167 574 180 157 575 165 184 576 215 155 577 175 191 578 295 224 579 230 194 580 291 225 581 282 226 582 2 82 583 140 152 584 283 227 585 171 228 586 282 226 587 284 229 588 195 209 589 285 230 590 280 231 591 158 232 592 283 227 593 287 233 594 288 234 595 182 208 596 289 210 597 231 235 598 294 193 599 287 233 600 182 208 601 284 229 602 285 230 603 177 207 604 286 236 605 228 237 606 272 238 607 297 239 608 181 190 609 225 206 610 178 187 611 168 211 612 205 240 613 160 169 614 173 175 615 79 97 616 5 41 617 271 241 618 225 206 619 270 219 620 273 215 621 229 164 622 271 241 623 291 225 624 230 194 625 294 193 626 281 242 627 221 243 628 286 236 629 280 231 630 222 244 631 281 242 632 193 180 633 239 158 634 180 157 635 240 171 636 288 234 637 235 204 638 158 232 639 238 177 640 171 228 641 166 245 642 236 185 643 158 232 644 171 228 645 89 103 646 2 82 647 170 223 648 241 161 649 193 180 650 195 209 651 239 158 652 177 207 653 297 239 654 230 194 655 296 246 656 164 200 657 242 247 658 188 248 659 296 246 660 230 194 661 295 224 662 184 203 663 176 186 664 172 183 665 211 249 666 181 190 667 183 213 668 226 202 669 131 67 670 79 97 671 227 162 672 274 217 673 205 240 674 275 220 675 225 206 676 190 250 677 205 240 678 269 214 679 226 202 680 190 250 681 272 238 682 275 220 683 210 251 684 270 219 685 208 252 686 206 253 687 271 241 688 210 251 689 224 254 690 262 255 691 223 256 692 187 257 693 258 258 694 248 259 695 222 244 696 260 260 697 221 243 698 245 261 699 265 262 700 279 263 701 221 243 702 266 264 703 232 265 704 186 266 705 251 267 706 247 268 707 223 256 708 261 269 709 222 244 710 228 237 711 256 270 712 209 222 713 210 251 714 255 271 715 257 272 716 243 273 717 264 274 718 228 237 719 159 275 720 268 276 721 246 277 722 218 278 723 249 279 724 258 258 725 209 222 726 250 280 727 194 218 728 53 65 729 254 281 730 106 282 731 204 216 732 253 283 733 252 284 734 188 248 735 276 285 736 249 279 737 206 253 738 257 272 739 253 283 740 234 286 741 267 287 742 268 276 743 244 288 744 277 289 745 243 273 746 207 221 747 252 284 748 254 281 749 231 235 750 247 268 751 265 262 752 245 261 753 278 290 754 244 288 755 194 218 756 255 271 757 208 252 758 242 247 759 246 277 760 276 285 761 220 291 762 263 292 763 224 254 764 202 293 765 248 259 766 251 267 767 232 265 768 267 287 769 233 294 770 75 151 771 259 295 772 220 291 773 166 245 774 281 242 775 189 160 776 189 160 777 286 236 778 177 207 779 232 265 780 286 236 781 221 243 782 223 256 783 283 227 784 224 254 785 233 294 786 285 230 787 232 265 788 224 254 789 282 226 790 220 291 791 220 291 792 140 152 793 75 151 794 159 275 795 287 233 796 234 286 797 234 286 798 284 229 799 233 294 800 290 197 801 218 278 802 187 257 803 235 204 804 159 275 805 242 247 806 186 266 807 292 195 808 202 293 809 293 198 810 188 248 811 218 278 812 202 293 813 290 197 814 187 257 815 230 194 816 297 239 817 211 249 818 297 239 819 243 273 820 228 237 821 296 246 822 244 288 823 243 273 824 245 261 825 294 193 826 231 235 827 295 224 828 245 261 829 244 288 830 211 249 831 297 239 832 272 238 833 22 0 834 10 28 835 63 1 836 0 3 837 93 60 838 28 4 839 37 6 840 14 88 841 91 7 842 39 9 843 16 64 844 80 10 845 15 12 846 67 56 847 27 13 848 6 15 849 16 64 850 47 16 851 94 18 852 0 3 853 1 5 854 40 20 855 17 29 856 47 16 857 21 22 858 6 15 859 45 17 860 92 24 861 89 103 862 12 25 863 65 27 864 63 1 865 10 28 866 41 30 867 18 78 868 65 27 869 68 32 870 15 12 871 20 14 872 13 34 873 18 78 874 91 7 875 24 36 876 49 57 877 26 37 878 50 39 879 24 36 880 29 38 881 90 35 882 92 24 883 23 26 884 5 41 885 21 22 886 48 23 887 9 43 888 22 0 889 66 2 890 152 45 891 147 63 892 7 46 893 150 48 894 148 77 895 8 49 896 50 39 897 31 40 898 7 46 899 78 54 900 55 96 901 6 15 902 64 53 903 68 32 904 32 33 905 88 55 906 94 18 907 33 19 908 28 4 909 41 30 910 70 31 911 27 13 912 40 20 913 52 21 914 77 58 915 26 37 916 39 9 917 25 59 918 37 6 919 95 8 920 0 3 921 94 18 922 30 61 923 33 19 924 1 5 925 15 12 926 49 57 927 52 21 928 39 9 929 8 49 930 32 33 931 50 39 932 147 63 933 150 48 934 46 50 935 44 42 936 48 23 937 22 0 938 20 14 939 27 13 940 49 57 941 48 23 942 45 17 943 10 28 944 52 21 945 47 16 946 16 64 947 45 17 948 47 16 949 17 29 950 31 40 951 61 106 952 83 47 953 53 65 954 57 74 955 125 66 956 54 68 957 56 109 958 129 69 959 126 71 960 58 108 961 42 72 962 57 74 963 54 68 964 130 70 965 132 73 966 42 72 967 59 75 968 67 56 969 70 31 970 40 20 971 11 52 972 33 19 973 68 32 974 148 77 975 151 51 976 64 53 977 62 44 978 66 2 979 23 26 980 70 31 981 65 27 982 17 29 983 18 78 984 13 34 985 63 1 986 1 5 987 28 4 988 67 56 989 66 2 990 63 1 991 13 34 992 139 81 993 140 152 994 2 82 995 141 84 996 139 81 997 19 83 998 142 86 999 143 92 1000 43 62 1001 137 87 1002 141 84 1003 3 85 1004 84 91 1005 34 121 1006 147 63 1007 143 92 1008 144 101 1009 25 59 1010 128 76 1011 59 75 1012 81 93 1013 29 38 1014 26 37 1015 77 58 1016 55 96 1017 80 10 1018 16 64 1019 79 97 1020 78 54 1021 21 22 1022 77 58 1023 82 11 1024 127 98 1025 82 11 1026 80 10 1027 129 69 1028 72 99 1029 73 102 1030 138 100 1031 73 102 1032 74 112 1033 137 87 1034 93 60 1035 95 8 1036 41 30 1037 146 90 1038 30 61 1039 94 18 1040 3 85 1041 19 83 1042 92 24 1043 90 35 1044 91 7 1045 14 88 1046 19 83 1047 2 82 1048 89 103 1049 95 8 1050 91 7 1051 18 78 1052 43 62 1053 25 59 1054 93 60 1055 11 52 1056 36 133 1057 96 105 1058 32 33 1059 20 14 1060 24 36 1061 29 38 1062 38 95 1063 61 106 1064 131 67 1065 125 66 1066 78 54 1067 130 70 1068 129 69 1069 80 10 1070 77 58 1071 126 71 1072 132 73 1073 125 66 1074 130 70 1075 55 96 1076 38 95 1077 132 73 1078 128 76 1079 126 71 1080 127 98 1081 60 107 1082 127 98 1083 129 69 1084 56 109 1085 117 110 1086 119 147 1087 76 111 1088 35 113 1089 102 149 1090 113 114 1091 115 116 1092 116 124 1093 73 102 1094 99 117 1095 136 296 1096 121 118 1097 122 119 1098 115 116 1099 72 99 1100 34 121 1101 101 144 1102 105 122 1103 116 124 1104 117 110 1105 74 112 1106 111 125 1107 120 127 1108 81 93 1109 60 107 1110 112 138 1111 110 126 1112 120 127 1113 134 141 1114 97 128 1115 4 129 1116 100 146 1117 124 130 1118 69 115 1119 113 114 1120 103 132 1121 104 134 1122 111 125 1123 59 75 1124 53 65 1125 106 282 1126 109 135 1127 54 68 1128 107 143 1129 108 136 1130 36 133 1131 103 132 1132 133 137 1133 56 109 1134 108 136 1135 112 138 1136 87 131 1137 124 130 1138 123 139 1139 134 141 1140 135 145 1141 98 142 1142 57 74 1143 109 135 1144 107 143 1145 84 91 1146 121 118 1147 101 144 1148 135 145 1149 136 296 1150 99 117 1151 110 126 1152 104 134 1153 42 72 1154 96 105 1155 133 137 1156 100 146 1157 119 147 1158 114 150 1159 71 148 1160 51 123 1161 105 122 1162 102 149 1163 123 139 1164 122 119 1165 85 120 1166 114 150 1167 118 297 1168 75 151 1169 138 100 1170 137 87 1171 14 88 1172 144 101 1173 138 100 1174 37 6 1175 85 120 1176 72 99 1177 144 101 1178 74 112 1179 76 111 1180 141 84 1181 86 140 1182 85 120 1183 143 92 1184 76 111 1185 71 148 1186 139 81 1187 71 148 1188 75 151 1189 140 152 1190 145 89 1191 146 90 1192 4 129 1193 87 131 1194 86 140 1195 142 86 1196 69 115 1197 151 51 1198 148 77 1199 4 129 1200 146 90 1201 88 55 1202 34 121 1203 51 123 1204 150 48 1205 36 133 1206 11 52 1207 151 51 1208 51 123 1209 35 113 1210 148 77 1211 97 128 1212 154 104 1213 155 94 1214 98 142 1215 153 79 1216 154 104 1217 99 117 1218 84 91 1219 152 45 1220 99 117 1221 149 80 1222 153 79 1223 212 153 1224 163 179 1225 174 154 1226 156 156 1227 157 172 1228 180 157 1229 237 159 1230 166 245 1231 189 160 1232 227 162 1233 168 211 1234 191 163 1235 167 165 1236 172 183 1237 179 166 1238 198 168 1239 168 211 1240 160 169 1241 240 171 1242 185 205 1243 157 172 1244 198 168 1245 169 212 1246 192 173 1247 196 170 1248 160 169 1249 173 175 1250 238 177 1251 175 191 1252 12 25 1253 214 178 1254 169 212 1255 163 179 1256 214 178 1257 170 223 1258 193 180 1259 217 182 1260 184 203 1261 172 183 1262 237 159 1263 170 223 1264 165 184 1265 176 186 1266 181 190 1267 178 187 1268 201 189 1269 183 213 1270 181 190 1271 236 185 1272 165 184 1273 175 191 1274 199 176 1275 173 175 1276 5 41 1277 215 155 1278 174 154 1279 9 43 1280 161 192 1281 289 210 1282 294 193 1283 292 195 1284 197 201 1285 162 196 1286 161 192 1287 183 213 1288 201 189 1289 160 169 1290 205 240 1291 226 202 1292 213 199 1293 162 196 1294 184 203 1295 235 204 1296 164 200 1297 185 205 1298 219 181 1299 193 180 1300 180 157 1301 203 174 1302 192 173 1303 179 166 1304 225 206 1305 229 164 1306 191 163 1307 241 161 1308 189 160 1309 177 207 1310 182 208 1311 240 171 1312 156 156 1313 185 205 1314 217 182 1315 167 165 1316 191 163 1317 203 174 1318 200 188 1319 162 196 1320 197 201 1321 201 189 1322 289 210 1323 161 192 1324 197 201 1325 174 154 1326 199 176 1327 44 42 1328 172 183 1329 176 186 1330 200 188 1331 163 179 1332 196 170 1333 199 176 1334 168 211 1335 198 168 1336 203 174 1337 169 212 1338 198 168 1339 196 170 1340 230 194 1341 211 249 1342 183 213 1343 269 214 1344 207 221 1345 53 65 1346 273 215 1347 206 253 1348 204 216 1349 194 218 1350 208 252 1351 270 219 1352 274 217 1353 204 216 1354 207 221 1355 275 220 1356 272 238 1357 209 222 1358 192 173 1359 219 181 1360 216 167 1361 164 200 1362 213 199 1363 217 182 1364 290 197 1365 162 196 1366 213 199 1367 175 191 1368 215 155 1369 62 44 1370 169 212 1371 214 178 1372 219 181 1373 170 223 1374 214 178 1375 212 153 1376 157 172 1377 167 165 1378 216 167 1379 165 184 1380 212 153 1381 215 155 1382 282 226 1383 171 228 1384 2 82 1385 283 227 1386 158 232 1387 171 228 1388 284 229 1389 182 208 1390 195 209 1391 280 231 1392 166 245 1393 158 232 1394 289 210 1395 186 266 1396 231 235 1397 285 230 1398 195 209 1399 177 207 1400 228 237 1401 209 222 1402 272 238 1403 181 190 1404 190 250 1405 225 206 1406 168 211 1407 227 162 1408 205 240 1409 173 175 1410 226 202 1411 79 97 1412 271 241 1413 229 164 1414 225 206 1415 273 215 1416 227 162 1417 229 164 1418 281 242 1419 222 244 1420 221 243 1421 280 231 1422 223 256 1423 222 244 1424 193 180 1425 241 161 1426 239 158 1427 240 171 1428 182 208 1429 288 234 1430 158 232 1431 236 185 1432 238 177 1433 166 245 1434 237 159 1435 236 185 1436 171 228 1437 238 177 1438 89 103 1439 170 223 1440 237 159 1441 241 161 1442 195 209 1443 156 156 1444 239 158 1445 164 200 1446 235 204 1447 242 247 1448 184 203 1449 201 189 1450 176 186 1451 211 249 1452 190 250 1453 181 190 1454 226 202 1455 269 214 1456 131 67 1457 227 162 1458 273 215 1459 274 217 1460 275 220 1461 270 219 1462 225 206 1463 205 240 1464 274 217 1465 269 214 1466 190 250 1467 211 249 1468 272 238 1469 210 251 1470 271 241 1471 270 219 1472 206 253 1473 273 215 1474 271 241 1475 224 254 1476 263 292 1477 262 255 1478 187 257 1479 218 278 1480 258 258 1481 222 244 1482 261 269 1483 260 260 1484 245 261 1485 231 235 1486 265 262 1487 221 243 1488 260 260 1489 266 264 1490 186 266 1491 202 293 1492 251 267 1493 223 256 1494 262 255 1495 261 269 1496 228 237 1497 264 274 1498 256 270 1499 210 251 1500 208 252 1501 255 271 1502 243 273 1503 277 289 1504 264 274 1505 159 275 1506 234 286 1507 268 276 1508 218 278 1509 188 248 1510 249 279 1511 209 222 1512 256 270 1513 250 280 1514 53 65 1515 207 221 1516 254 281 1517 204 216 1518 206 253 1519 253 283 1520 188 248 1521 242 247 1522 276 285 1523 206 253 1524 210 251 1525 257 272 1526 234 286 1527 233 294 1528 267 287 1529 244 288 1530 278 290 1531 277 289 1532 207 221 1533 204 216 1534 252 284 1535 231 235 1536 186 266 1537 247 268 1538 245 261 1539 279 263 1540 278 290 1541 194 218 1542 250 280 1543 255 271 1544 242 247 1545 159 275 1546 246 277 1547 220 291 1548 259 295 1549 263 292 1550 202 293 1551 187 257 1552 248 259 1553 232 265 1554 266 264 1555 267 287 1556 75 151 1557 118 297 1558 259 295 1559 166 245 1560 280 231 1561 281 242 1562 189 160 1563 281 242 1564 286 236 1565 232 265 1566 285 230 1567 286 236 1568 223 256 1569 280 231 1570 283 227 1571 233 294 1572 284 229 1573 285 230 1574 224 254 1575 283 227 1576 282 226 1577 220 291 1578 282 226 1579 140 152 1580 159 275 1581 288 234 1582 287 233 1583 234 286 1584 287 233 1585 284 229 1586 290 197 1587 293 198 1588 218 278 1589 235 204 1590 288 234 1591 159 275 1592 186 266 1593 289 210 1594 292 195 1595 293 198 1596 164 200 1597 188 248 1598 202 293 1599 292 195 1600 290 197 1601 297 239 1602 296 246 1603 243 273 1604 296 246 1605 295 224 1606 244 288 1607 245 261 1608 291 225 1609 294 193 1610 295 224 1611 291 225 1612 245 261 1613</p>
        </triangles>
      </mesh>
    </geometry>
  </library_geometries>
  <library_visual_scenes>
    <visual_scene id="Scene" name="Scene">
      <node id="espejo" name="espejo" type="NODE">
        <matrix sid="transform">1 0 0 0 0 1 0 0 0 0 1 0 0 0 0 1</matrix>
        <instance_geometry url="#Plane_004-mesh" name="espejo">
          <bind_material>
            <technique_common>
              <instance_material symbol="espejo-material" target="#espejo-material">
                <bind_vertex_input semantic="UVMap" input_semantic="TEXCOORD" input_set="0"/>
              </instance_material>
            </technique_common>
          </bind_material>
        </instance_geometry>
      </node>
    </visual_scene>
  </library_visual_scenes>
  <scene>
    <instance_visual_scene url="#Scene"/>
  </scene>
</COLLADA>